0
SECTION
2
HEADER
9
$ACADVER
1
AC1008
9
$UCSORG
10
0.0
20
0.0
30
0.0
9
$UCSXDIR
10
1.0
20
0.0
30
0.0
9
$TILEMODE
70
1
9
$UCSYDIR
10
0.0
20
1.0
30
0.0
9
$EXTMIN
10
-10.250000
20
-65.000000
30
-50.000130
9
$EXTMAX
10
10.250000
20
65.000000
30
0.000001
0
ENDSEC
0
SECTION
2
TABLES
0
TABLE
2
LTYPE
70
1
0
LTYPE
2
CONTINUOUS
70
64
3
Solid line
72
65
73
0
40
0.0
0
ENDTAB
0
TABLE
2
LAYER
70
1
0
LAYER
2
LAMP
70
0
62
74
6
CONTINUOUS
0
ENDTAB
0
TABLE
2
STYLE
70
1
0
STYLE
2
STANDARD
70
0
40
0.0
41
1.0
50
0.0
71
0
42
0.2
3
txt
4

0
ENDTAB
0
TABLE
2
UCS
70
0
0
ENDTAB
0
ENDSEC
0
SECTION
2
ENTITIES
0
POLYLINE
8
LAMP
66
1
70
64
71
508
72
932
62
74
0
VERTEX
8
LAMP
10
-3.500000
20
-56.249989
30
-0.000006
70
192
0
VERTEX
8
LAMP
10
-4.130623
20
-56.079189
30
-0.000006
70
192
0
VERTEX
8
LAMP
10
-4.579201
20
-55.630611
30
-0.000006
70
192
0
VERTEX
8
LAMP
10
-4.750000
20
-54.999989
30
-0.000006
70
192
0
VERTEX
8
LAMP
10
-4.579201
20
-54.369366
30
-0.000006
70
192
0
VERTEX
8
LAMP
10
-4.130623
20
-53.920788
30
-0.000004
70
192
0
VERTEX
8
LAMP
10
-3.500000
20
-53.749989
30
-0.000004
70
192
0
VERTEX
8
LAMP
10
-2.869377
20
-53.920788
30
-0.000004
70
192
0
VERTEX
8
LAMP
10
-2.420799
20
-54.369366
30
-0.000006
70
192
0
VERTEX
8
LAMP
10
-2.250000
20
-54.999989
30
-0.000006
70
192
0
VERTEX
8
LAMP
10
-2.420799
20
-55.630611
30
-0.000006
70
192
0
VERTEX
8
LAMP
10
-2.869377
20
-56.079189
30
-0.000006
70
192
0
VERTEX
8
LAMP
10
-3.500000
20
-55.746624
30
-6.000006
70
192
0
VERTEX
8
LAMP
10
-3.876675
20
-55.644604
30
-6.000006
70
192
0
VERTEX
8
LAMP
10
-4.144611
20
-55.376667
30
-6.000006
70
192
0
VERTEX
8
LAMP
10
-4.246632
20
-54.999989
30
-6.000006
70
192
0
VERTEX
8
LAMP
10
-4.144611
20
-54.623318
30
-6.000006
70
192
0
VERTEX
8
LAMP
10
-3.876675
20
-54.355381
30
-6.000006
70
192
0
VERTEX
8
LAMP
10
-3.500000
20
-54.253361
30
-6.000006
70
192
0
VERTEX
8
LAMP
10
-3.123325
20
-54.355381
30
-6.000006
70
192
0
VERTEX
8
LAMP
10
-2.855389
20
-54.623318
30
-6.000006
70
192
0
VERTEX
8
LAMP
10
-2.753368
20
-54.999989
30
-6.000006
70
192
0
VERTEX
8
LAMP
10
-2.855389
20
-55.376667
30
-6.000006
70
192
0
VERTEX
8
LAMP
10
-3.123325
20
-55.644604
30
-6.000006
70
192
0
VERTEX
8
LAMP
10
-3.687500
20
-55.187489
30
-6.000006
70
192
0
VERTEX
8
LAMP
10
-3.312500
20
-55.187489
30
-6.000006
70
192
0
VERTEX
8
LAMP
10
-3.312500
20
-54.812489
30
-6.000006
70
192
0
VERTEX
8
LAMP
10
-3.687500
20
-54.812489
30
-6.000006
70
192
0
VERTEX
8
LAMP
10
-3.500000
20
-55.249996
30
-44.911205
70
192
0
VERTEX
8
LAMP
10
-3.250000
20
-54.999996
30
-44.911205
70
192
0
VERTEX
8
LAMP
10
-3.500000
20
-54.749996
30
-44.911201
70
192
0
VERTEX
8
LAMP
10
-3.750000
20
-54.999996
30
-44.911205
70
192
0
VERTEX
8
LAMP
10
-3.687500
20
-55.187496
30
-44.911205
70
192
0
VERTEX
8
LAMP
10
-3.312500
20
-55.187496
30
-44.911205
70
192
0
VERTEX
8
LAMP
10
-3.500000
20
-55.249989
30
-6.000006
70
192
0
VERTEX
8
LAMP
10
-3.312500
20
-54.812496
30
-44.911201
70
192
0
VERTEX
8
LAMP
10
-3.250000
20
-54.999989
30
-6.000006
70
192
0
VERTEX
8
LAMP
10
-3.687500
20
-54.812496
30
-44.911201
70
192
0
VERTEX
8
LAMP
10
-3.500000
20
-54.749989
30
-6.000006
70
192
0
VERTEX
8
LAMP
10
-3.750000
20
-54.999989
30
-6.000006
70
192
0
VERTEX
8
LAMP
10
-3.788750
20
-55.288746
30
-44.911209
70
192
0
VERTEX
8
LAMP
10
-3.500000
20
-55.384995
30
-44.911209
70
192
0
VERTEX
8
LAMP
10
-3.211250
20
-55.288746
30
-44.911209
70
192
0
VERTEX
8
LAMP
10
-3.115000
20
-54.999996
30
-44.911209
70
192
0
VERTEX
8
LAMP
10
-3.211250
20
-54.711243
30
-44.911205
70
192
0
VERTEX
8
LAMP
10
-3.500000
20
-54.614994
30
-44.911205
70
192
0
VERTEX
8
LAMP
10
-3.788750
20
-54.711243
30
-44.911205
70
192
0
VERTEX
8
LAMP
10
-3.885000
20
-54.999996
30
-44.911209
70
192
0
VERTEX
8
LAMP
10
-3.788750
20
-55.288746
30
-46.500004
70
192
0
VERTEX
8
LAMP
10
-3.500000
20
-55.384995
30
-46.500004
70
192
0
VERTEX
8
LAMP
10
-3.211250
20
-55.288746
30
-46.500004
70
192
0
VERTEX
8
LAMP
10
-3.115000
20
-54.999996
30
-46.500004
70
192
0
VERTEX
8
LAMP
10
-3.211250
20
-54.711243
30
-46.500000
70
192
0
VERTEX
8
LAMP
10
-3.500000
20
-54.614994
30
-46.500000
70
192
0
VERTEX
8
LAMP
10
-3.788750
20
-54.711243
30
-46.500000
70
192
0
VERTEX
8
LAMP
10
-3.885000
20
-54.999996
30
-46.500004
70
192
0
VERTEX
8
LAMP
10
3.500000
20
-56.249989
30
-0.000006
70
192
0
VERTEX
8
LAMP
10
4.130623
20
-56.079189
30
-0.000006
70
192
0
VERTEX
8
LAMP
10
4.579201
20
-55.630611
30
-0.000006
70
192
0
VERTEX
8
LAMP
10
4.750000
20
-54.999989
30
-0.000006
70
192
0
VERTEX
8
LAMP
10
4.579201
20
-54.369366
30
-0.000006
70
192
0
VERTEX
8
LAMP
10
4.130623
20
-53.920788
30
-0.000004
70
192
0
VERTEX
8
LAMP
10
3.500000
20
-53.749989
30
-0.000004
70
192
0
VERTEX
8
LAMP
10
2.869377
20
-53.920788
30
-0.000004
70
192
0
VERTEX
8
LAMP
10
2.420799
20
-54.369366
30
-0.000006
70
192
0
VERTEX
8
LAMP
10
2.250000
20
-54.999989
30
-0.000006
70
192
0
VERTEX
8
LAMP
10
2.420799
20
-55.630611
30
-0.000006
70
192
0
VERTEX
8
LAMP
10
2.869377
20
-56.079189
30
-0.000006
70
192
0
VERTEX
8
LAMP
10
3.500000
20
-55.746624
30
-6.000006
70
192
0
VERTEX
8
LAMP
10
3.876675
20
-55.644604
30
-6.000006
70
192
0
VERTEX
8
LAMP
10
4.144611
20
-55.376667
30
-6.000006
70
192
0
VERTEX
8
LAMP
10
4.246632
20
-54.999989
30
-6.000006
70
192
0
VERTEX
8
LAMP
10
4.144611
20
-54.623318
30
-6.000006
70
192
0
VERTEX
8
LAMP
10
3.876675
20
-54.355381
30
-6.000006
70
192
0
VERTEX
8
LAMP
10
3.500000
20
-54.253361
30
-6.000006
70
192
0
VERTEX
8
LAMP
10
3.123325
20
-54.355381
30
-6.000006
70
192
0
VERTEX
8
LAMP
10
2.855389
20
-54.623318
30
-6.000006
70
192
0
VERTEX
8
LAMP
10
2.753368
20
-54.999989
30
-6.000006
70
192
0
VERTEX
8
LAMP
10
2.855389
20
-55.376667
30
-6.000006
70
192
0
VERTEX
8
LAMP
10
3.123325
20
-55.644604
30
-6.000006
70
192
0
VERTEX
8
LAMP
10
3.687500
20
-55.187489
30
-6.000006
70
192
0
VERTEX
8
LAMP
10
3.312500
20
-55.187489
30
-6.000006
70
192
0
VERTEX
8
LAMP
10
3.312500
20
-54.812489
30
-6.000006
70
192
0
VERTEX
8
LAMP
10
3.687500
20
-54.812489
30
-6.000006
70
192
0
VERTEX
8
LAMP
10
3.500000
20
-55.249996
30
-44.911205
70
192
0
VERTEX
8
LAMP
10
3.250000
20
-54.999996
30
-44.911205
70
192
0
VERTEX
8
LAMP
10
3.500000
20
-54.749996
30
-44.911201
70
192
0
VERTEX
8
LAMP
10
3.750000
20
-54.999996
30
-44.911205
70
192
0
VERTEX
8
LAMP
10
3.687500
20
-55.187496
30
-44.911205
70
192
0
VERTEX
8
LAMP
10
3.312500
20
-55.187496
30
-44.911205
70
192
0
VERTEX
8
LAMP
10
3.500000
20
-55.249989
30
-6.000006
70
192
0
VERTEX
8
LAMP
10
3.312500
20
-54.812496
30
-44.911201
70
192
0
VERTEX
8
LAMP
10
3.250000
20
-54.999989
30
-6.000006
70
192
0
VERTEX
8
LAMP
10
3.687500
20
-54.812496
30
-44.911201
70
192
0
VERTEX
8
LAMP
10
3.500000
20
-54.749989
30
-6.000006
70
192
0
VERTEX
8
LAMP
10
3.750000
20
-54.999989
30
-6.000006
70
192
0
VERTEX
8
LAMP
10
3.788750
20
-55.288746
30
-44.911209
70
192
0
VERTEX
8
LAMP
10
3.500000
20
-55.384995
30
-44.911209
70
192
0
VERTEX
8
LAMP
10
3.211250
20
-55.288746
30
-44.911209
70
192
0
VERTEX
8
LAMP
10
3.115000
20
-54.999996
30
-44.911209
70
192
0
VERTEX
8
LAMP
10
3.211250
20
-54.711243
30
-44.911205
70
192
0
VERTEX
8
LAMP
10
3.500000
20
-54.614994
30
-44.911205
70
192
0
VERTEX
8
LAMP
10
3.788750
20
-54.711243
30
-44.911205
70
192
0
VERTEX
8
LAMP
10
3.885000
20
-54.999996
30
-44.911209
70
192
0
VERTEX
8
LAMP
10
3.788750
20
-55.288746
30
-46.500004
70
192
0
VERTEX
8
LAMP
10
3.500000
20
-55.384995
30
-46.500004
70
192
0
VERTEX
8
LAMP
10
3.211250
20
-55.288746
30
-46.500004
70
192
0
VERTEX
8
LAMP
10
3.115000
20
-54.999996
30
-46.500004
70
192
0
VERTEX
8
LAMP
10
3.211250
20
-54.711243
30
-46.500000
70
192
0
VERTEX
8
LAMP
10
3.500000
20
-54.614994
30
-46.500000
70
192
0
VERTEX
8
LAMP
10
3.788750
20
-54.711243
30
-46.500000
70
192
0
VERTEX
8
LAMP
10
3.885000
20
-54.999996
30
-46.500004
70
192
0
VERTEX
8
LAMP
10
-3.500000
20
-65.000000
30
-49.500004
70
192
0
VERTEX
8
LAMP
10
-3.500000
20
-65.000000
30
-50.000004
70
192
0
VERTEX
8
LAMP
10
3.500000
20
-65.000000
30
-50.000004
70
192
0
VERTEX
8
LAMP
10
3.500000
20
-65.000000
30
-49.500004
70
192
0
VERTEX
8
LAMP
10
3.750000
20
-65.000000
30
-49.500004
70
192
0
VERTEX
8
LAMP
10
3.750000
20
-65.000000
30
-50.000004
70
192
0
VERTEX
8
LAMP
10
10.150000
20
-65.000000
30
-50.000004
70
192
0
VERTEX
8
LAMP
10
10.250000
20
-65.000000
30
-47.350002
70
192
0
VERTEX
8
LAMP
10
4.000000
20
-65.000000
30
-47.250004
70
192
0
VERTEX
8
LAMP
10
4.000000
20
-65.000000
30
-46.500004
70
192
0
VERTEX
8
LAMP
10
-4.000000
20
-65.000000
30
-46.500004
70
192
0
VERTEX
8
LAMP
10
-4.000000
20
-65.000000
30
-47.250004
70
192
0
VERTEX
8
LAMP
10
-3.750000
20
-65.000000
30
-49.500004
70
192
0
VERTEX
8
LAMP
10
-10.150000
20
-65.000000
30
-47.250004
70
192
0
VERTEX
8
LAMP
10
-10.250000
20
-65.000000
30
-49.900005
70
192
0
VERTEX
8
LAMP
10
-3.750000
20
-65.000000
30
-50.000004
70
192
0
VERTEX
8
LAMP
10
-10.250000
20
-52.019501
30
-49.900032
70
192
0
VERTEX
8
LAMP
10
-3.750000
20
-52.019501
30
-50.000031
70
192
0
VERTEX
8
LAMP
10
-10.150000
20
-52.019501
30
-47.250031
70
192
0
VERTEX
8
LAMP
10
-4.000000
20
-52.019501
30
-47.250031
70
192
0
VERTEX
8
LAMP
10
-4.000000
20
-52.019501
30
-46.500031
70
192
0
VERTEX
8
LAMP
10
4.000000
20
-52.019501
30
-46.500031
70
192
0
VERTEX
8
LAMP
10
4.000000
20
-52.019501
30
-47.250031
70
192
0
VERTEX
8
LAMP
10
10.250000
20
-52.019501
30
-47.350029
70
192
0
VERTEX
8
LAMP
10
10.150000
20
-52.019501
30
-50.000031
70
192
0
VERTEX
8
LAMP
10
3.750000
20
-52.019501
30
-50.000031
70
192
0
VERTEX
8
LAMP
10
3.750000
20
-52.019501
30
-49.500031
70
192
0
VERTEX
8
LAMP
10
3.500000
20
-52.019501
30
-49.500031
70
192
0
VERTEX
8
LAMP
10
3.500000
20
-52.019501
30
-50.000031
70
192
0
VERTEX
8
LAMP
10
-3.500000
20
-52.019501
30
-50.000031
70
192
0
VERTEX
8
LAMP
10
-3.500000
20
-52.019501
30
-49.500031
70
192
0
VERTEX
8
LAMP
10
-3.750000
20
-52.019501
30
-49.500031
70
192
0
VERTEX
8
LAMP
10
-10.250000
20
-39.005489
30
-49.900032
70
192
0
VERTEX
8
LAMP
10
-3.750000
20
-39.005489
30
-50.000031
70
192
0
VERTEX
8
LAMP
10
-10.150000
20
-39.005489
30
-47.250031
70
192
0
VERTEX
8
LAMP
10
-4.000000
20
-39.005489
30
-47.250031
70
192
0
VERTEX
8
LAMP
10
-4.000000
20
-39.005489
30
-46.500031
70
192
0
VERTEX
8
LAMP
10
4.000000
20
-39.005489
30
-46.500031
70
192
0
VERTEX
8
LAMP
10
4.000000
20
-39.005489
30
-47.250031
70
192
0
VERTEX
8
LAMP
10
10.250000
20
-39.005489
30
-47.350029
70
192
0
VERTEX
8
LAMP
10
10.150000
20
-39.005489
30
-50.000031
70
192
0
VERTEX
8
LAMP
10
3.750000
20
-39.005489
30
-50.000031
70
192
0
VERTEX
8
LAMP
10
3.750000
20
-39.005489
30
-49.500031
70
192
0
VERTEX
8
LAMP
10
3.500000
20
-39.005489
30
-49.500031
70
192
0
VERTEX
8
LAMP
10
3.500000
20
-39.005489
30
-50.000031
70
192
0
VERTEX
8
LAMP
10
-3.500000
20
-39.005489
30
-50.000031
70
192
0
VERTEX
8
LAMP
10
-3.500000
20
-39.005489
30
-49.500031
70
192
0
VERTEX
8
LAMP
10
-3.750000
20
-39.005489
30
-49.500031
70
192
0
VERTEX
8
LAMP
10
-10.150000
20
-25.980526
30
-50.000031
70
192
0
VERTEX
8
LAMP
10
-3.750000
20
-25.980526
30
-50.000031
70
192
0
VERTEX
8
LAMP
10
-10.150000
20
-25.980526
30
-47.250031
70
192
0
VERTEX
8
LAMP
10
-4.000000
20
-25.980526
30
-47.250031
70
192
0
VERTEX
8
LAMP
10
-4.000000
20
-25.980526
30
-46.500031
70
192
0
VERTEX
8
LAMP
10
4.000000
20
-25.980526
30
-46.500031
70
192
0
VERTEX
8
LAMP
10
4.000000
20
-25.980526
30
-47.250031
70
192
0
VERTEX
8
LAMP
10
10.150000
20
-25.980526
30
-47.250031
70
192
0
VERTEX
8
LAMP
10
10.250000
20
-25.980526
30
-49.900032
70
192
0
VERTEX
8
LAMP
10
3.750000
20
-25.980526
30
-50.000031
70
192
0
VERTEX
8
LAMP
10
3.750000
20
-25.980526
30
-49.500031
70
192
0
VERTEX
8
LAMP
10
3.500000
20
-25.980526
30
-49.500031
70
192
0
VERTEX
8
LAMP
10
3.500000
20
-25.980526
30
-50.000031
70
192
0
VERTEX
8
LAMP
10
-3.500000
20
-25.980526
30
-50.000031
70
192
0
VERTEX
8
LAMP
10
-3.500000
20
-25.980526
30
-49.500031
70
192
0
VERTEX
8
LAMP
10
-3.750000
20
-25.980526
30
-49.500031
70
192
0
VERTEX
8
LAMP
10
-10.150000
20
-13.002726
30
-50.000031
70
192
0
VERTEX
8
LAMP
10
-3.750000
20
-13.002726
30
-50.000031
70
192
0
VERTEX
8
LAMP
10
-10.150000
20
-13.002726
30
-47.250031
70
192
0
VERTEX
8
LAMP
10
-4.000000
20
-13.002726
30
-47.250031
70
192
0
VERTEX
8
LAMP
10
-4.000000
20
-13.002726
30
-46.500031
70
192
0
VERTEX
8
LAMP
10
4.000000
20
-13.002726
30
-46.500031
70
192
0
VERTEX
8
LAMP
10
4.000000
20
-13.002726
30
-47.250031
70
192
0
VERTEX
8
LAMP
10
10.150000
20
-13.002726
30
-47.250031
70
192
0
VERTEX
8
LAMP
10
10.250000
20
-13.002726
30
-49.900032
70
192
0
VERTEX
8
LAMP
10
3.750000
20
-13.002726
30
-50.000031
70
192
0
VERTEX
8
LAMP
10
3.750000
20
-13.002726
30
-49.500031
70
192
0
VERTEX
8
LAMP
10
3.500000
20
-13.002726
30
-49.500031
70
192
0
VERTEX
8
LAMP
10
3.500000
20
-13.002726
30
-50.000031
70
192
0
VERTEX
8
LAMP
10
-3.500000
20
-13.002726
30
-50.000031
70
192
0
VERTEX
8
LAMP
10
-3.500000
20
-13.002726
30
-49.500031
70
192
0
VERTEX
8
LAMP
10
-3.750000
20
-13.002726
30
-49.500031
70
192
0
VERTEX
8
LAMP
10
-10.150000
20
0.011268
30
-50.000031
70
192
0
VERTEX
8
LAMP
10
-3.750000
20
0.011268
30
-50.000031
70
192
0
VERTEX
8
LAMP
10
-10.150000
20
0.011268
30
-47.250031
70
192
0
VERTEX
8
LAMP
10
-4.000000
20
0.011268
30
-47.250031
70
192
0
VERTEX
8
LAMP
10
-4.000000
20
0.011268
30
-46.500031
70
192
0
VERTEX
8
LAMP
10
4.000000
20
0.011268
30
-46.500031
70
192
0
VERTEX
8
LAMP
10
4.000000
20
0.011268
30
-47.250031
70
192
0
VERTEX
8
LAMP
10
10.150000
20
0.011268
30
-47.250031
70
192
0
VERTEX
8
LAMP
10
10.250000
20
0.011268
30
-49.900032
70
192
0
VERTEX
8
LAMP
10
3.750000
20
0.011268
30
-50.000031
70
192
0
VERTEX
8
LAMP
10
3.750000
20
0.011268
30
-49.500031
70
192
0
VERTEX
8
LAMP
10
3.500000
20
0.011268
30
-49.500031
70
192
0
VERTEX
8
LAMP
10
3.500000
20
0.011268
30
-50.000031
70
192
0
VERTEX
8
LAMP
10
-3.500000
20
0.011268
30
-50.000031
70
192
0
VERTEX
8
LAMP
10
-3.500000
20
0.011268
30
-49.500031
70
192
0
VERTEX
8
LAMP
10
-3.750000
20
0.011268
30
-49.500031
70
192
0
VERTEX
8
LAMP
10
-10.150000
20
13.014734
30
-50.000031
70
192
0
VERTEX
8
LAMP
10
-3.750000
20
13.014734
30
-50.000031
70
192
0
VERTEX
8
LAMP
10
-10.150000
20
13.014734
30
-47.250031
70
192
0
VERTEX
8
LAMP
10
-4.000000
20
13.014734
30
-47.250031
70
192
0
VERTEX
8
LAMP
10
-4.000000
20
13.014734
30
-46.500031
70
192
0
VERTEX
8
LAMP
10
4.000000
20
13.014734
30
-46.500031
70
192
0
VERTEX
8
LAMP
10
4.000000
20
13.014734
30
-47.250031
70
192
0
VERTEX
8
LAMP
10
10.150000
20
13.014734
30
-47.250031
70
192
0
VERTEX
8
LAMP
10
10.250000
20
13.014734
30
-49.900032
70
192
0
VERTEX
8
LAMP
10
3.750000
20
13.014734
30
-50.000031
70
192
0
VERTEX
8
LAMP
10
3.750000
20
13.014734
30
-49.500031
70
192
0
VERTEX
8
LAMP
10
3.500000
20
13.014734
30
-49.500031
70
192
0
VERTEX
8
LAMP
10
3.500000
20
13.014734
30
-50.000031
70
192
0
VERTEX
8
LAMP
10
-3.500000
20
13.014734
30
-50.000031
70
192
0
VERTEX
8
LAMP
10
-3.500000
20
13.014734
30
-49.500031
70
192
0
VERTEX
8
LAMP
10
-3.750000
20
13.014734
30
-49.500031
70
192
0
VERTEX
8
LAMP
10
-10.150000
20
26.014734
30
-50.000031
70
192
0
VERTEX
8
LAMP
10
-3.750000
20
26.014734
30
-50.000031
70
192
0
VERTEX
8
LAMP
10
-10.150000
20
26.014734
30
-47.250031
70
192
0
VERTEX
8
LAMP
10
-4.000000
20
26.014734
30
-47.250031
70
192
0
VERTEX
8
LAMP
10
-4.000000
20
26.014734
30
-46.500031
70
192
0
VERTEX
8
LAMP
10
4.000000
20
26.014734
30
-46.500031
70
192
0
VERTEX
8
LAMP
10
4.000000
20
26.014734
30
-47.250031
70
192
0
VERTEX
8
LAMP
10
10.150000
20
26.014734
30
-47.250031
70
192
0
VERTEX
8
LAMP
10
10.250000
20
26.014734
30
-49.900032
70
192
0
VERTEX
8
LAMP
10
3.750000
20
26.014734
30
-50.000031
70
192
0
VERTEX
8
LAMP
10
3.750000
20
26.014734
30
-49.500031
70
192
0
VERTEX
8
LAMP
10
3.500000
20
26.014734
30
-49.500031
70
192
0
VERTEX
8
LAMP
10
3.500000
20
26.014734
30
-50.000031
70
192
0
VERTEX
8
LAMP
10
-3.500000
20
26.014734
30
-50.000031
70
192
0
VERTEX
8
LAMP
10
-3.500000
20
26.014734
30
-49.500031
70
192
0
VERTEX
8
LAMP
10
-3.750000
20
26.014734
30
-49.500031
70
192
0
VERTEX
8
LAMP
10
-10.150000
20
39.014732
30
-50.000031
70
192
0
VERTEX
8
LAMP
10
-3.750000
20
39.014732
30
-50.000031
70
192
0
VERTEX
8
LAMP
10
-10.150000
20
39.014732
30
-47.250031
70
192
0
VERTEX
8
LAMP
10
-4.000000
20
39.014732
30
-47.250031
70
192
0
VERTEX
8
LAMP
10
-4.000000
20
39.014732
30
-46.500031
70
192
0
VERTEX
8
LAMP
10
4.000000
20
39.014732
30
-46.500031
70
192
0
VERTEX
8
LAMP
10
4.000000
20
39.014732
30
-47.250031
70
192
0
VERTEX
8
LAMP
10
10.150000
20
39.014732
30
-47.250031
70
192
0
VERTEX
8
LAMP
10
10.250000
20
39.014732
30
-49.900032
70
192
0
VERTEX
8
LAMP
10
3.750000
20
39.014732
30
-50.000031
70
192
0
VERTEX
8
LAMP
10
3.750000
20
39.014732
30
-49.500031
70
192
0
VERTEX
8
LAMP
10
3.500000
20
39.014732
30
-49.500031
70
192
0
VERTEX
8
LAMP
10
3.500000
20
39.014732
30
-50.000031
70
192
0
VERTEX
8
LAMP
10
-3.500000
20
39.014732
30
-50.000031
70
192
0
VERTEX
8
LAMP
10
-3.500000
20
39.014732
30
-49.500031
70
192
0
VERTEX
8
LAMP
10
-3.750000
20
39.014732
30
-49.500031
70
192
0
VERTEX
8
LAMP
10
-10.150000
20
52.114731
30
-50.000031
70
192
0
VERTEX
8
LAMP
10
-3.750000
20
52.114731
30
-50.000031
70
192
0
VERTEX
8
LAMP
10
-10.150000
20
52.114731
30
-47.250031
70
192
0
VERTEX
8
LAMP
10
-4.000000
20
52.114731
30
-47.250031
70
192
0
VERTEX
8
LAMP
10
-4.000000
20
52.114731
30
-46.500031
70
192
0
VERTEX
8
LAMP
10
4.000000
20
52.114731
30
-46.500031
70
192
0
VERTEX
8
LAMP
10
4.000000
20
52.114731
30
-47.250031
70
192
0
VERTEX
8
LAMP
10
10.150000
20
52.114731
30
-47.250031
70
192
0
VERTEX
8
LAMP
10
10.250000
20
52.114731
30
-49.900032
70
192
0
VERTEX
8
LAMP
10
3.750000
20
52.114731
30
-50.000031
70
192
0
VERTEX
8
LAMP
10
3.750000
20
52.114731
30
-49.500031
70
192
0
VERTEX
8
LAMP
10
3.500000
20
52.114731
30
-49.500031
70
192
0
VERTEX
8
LAMP
10
3.500000
20
52.114731
30
-50.000031
70
192
0
VERTEX
8
LAMP
10
-3.500000
20
52.114731
30
-50.000031
70
192
0
VERTEX
8
LAMP
10
-3.500000
20
52.114731
30
-49.500031
70
192
0
VERTEX
8
LAMP
10
-3.750000
20
52.114731
30
-49.500031
70
192
0
VERTEX
8
LAMP
10
-10.150000
20
65.000000
30
-50.000031
70
192
0
VERTEX
8
LAMP
10
-3.750000
20
65.000000
30
-50.000031
70
192
0
VERTEX
8
LAMP
10
-10.250000
20
65.000000
30
-47.350029
70
192
0
VERTEX
8
LAMP
10
-4.000000
20
65.000000
30
-47.250031
70
192
0
VERTEX
8
LAMP
10
-4.000000
20
65.000000
30
-46.500031
70
192
0
VERTEX
8
LAMP
10
4.000000
20
65.000000
30
-46.500031
70
192
0
VERTEX
8
LAMP
10
4.000000
20
65.000000
30
-47.250031
70
192
0
VERTEX
8
LAMP
10
10.150000
20
65.000000
30
-47.250031
70
192
0
VERTEX
8
LAMP
10
10.250000
20
65.000000
30
-49.900032
70
192
0
VERTEX
8
LAMP
10
3.750000
20
65.000000
30
-50.000031
70
192
0
VERTEX
8
LAMP
10
3.750000
20
65.000000
30
-49.500031
70
192
0
VERTEX
8
LAMP
10
3.500000
20
65.000000
30
-49.500031
70
192
0
VERTEX
8
LAMP
10
3.500000
20
65.000000
30
-50.000031
70
192
0
VERTEX
8
LAMP
10
-3.500000
20
65.000000
30
-50.000031
70
192
0
VERTEX
8
LAMP
10
-3.500000
20
65.000000
30
-49.500031
70
192
0
VERTEX
8
LAMP
10
-3.750000
20
65.000000
30
-49.500031
70
192
0
VERTEX
8
LAMP
10
10.250000
20
-65.000000
30
-49.900005
70
192
0
VERTEX
8
LAMP
10
10.150000
20
-65.000000
30
-47.250004
70
192
0
VERTEX
8
LAMP
10
-10.250000
20
-65.000000
30
-47.350002
70
192
0
VERTEX
8
LAMP
10
-10.150000
20
-65.000000
30
-50.000004
70
192
0
VERTEX
8
LAMP
10
-10.150000
20
-52.019501
30
-50.000031
70
192
0
VERTEX
8
LAMP
10
-10.250000
20
-52.019501
30
-47.350029
70
192
0
VERTEX
8
LAMP
10
10.150000
20
-52.019501
30
-47.250031
70
192
0
VERTEX
8
LAMP
10
10.250000
20
-52.019501
30
-49.900032
70
192
0
VERTEX
8
LAMP
10
-10.150000
20
-39.005489
30
-50.000031
70
192
0
VERTEX
8
LAMP
10
-10.250000
20
-39.005489
30
-47.350029
70
192
0
VERTEX
8
LAMP
10
10.150000
20
-39.005489
30
-47.250031
70
192
0
VERTEX
8
LAMP
10
10.250000
20
-39.005489
30
-49.900032
70
192
0
VERTEX
8
LAMP
10
-10.250000
20
-25.980526
30
-49.900032
70
192
0
VERTEX
8
LAMP
10
-10.250000
20
-25.980526
30
-47.350029
70
192
0
VERTEX
8
LAMP
10
10.250000
20
-25.980526
30
-47.350029
70
192
0
VERTEX
8
LAMP
10
10.150000
20
-25.980526
30
-50.000031
70
192
0
VERTEX
8
LAMP
10
-10.250000
20
-13.002726
30
-49.900032
70
192
0
VERTEX
8
LAMP
10
-10.250000
20
-13.002726
30
-47.350029
70
192
0
VERTEX
8
LAMP
10
10.250000
20
-13.002726
30
-47.350029
70
192
0
VERTEX
8
LAMP
10
10.150000
20
-13.002726
30
-50.000031
70
192
0
VERTEX
8
LAMP
10
-10.250000
20
0.011268
30
-49.900032
70
192
0
VERTEX
8
LAMP
10
-10.250000
20
0.011268
30
-47.350029
70
192
0
VERTEX
8
LAMP
10
10.250000
20
0.011268
30
-47.350029
70
192
0
VERTEX
8
LAMP
10
10.150000
20
0.011268
30
-50.000031
70
192
0
VERTEX
8
LAMP
10
-10.250000
20
13.014734
30
-49.900032
70
192
0
VERTEX
8
LAMP
10
-10.250000
20
13.014734
30
-47.350029
70
192
0
VERTEX
8
LAMP
10
10.250000
20
13.014734
30
-47.350029
70
192
0
VERTEX
8
LAMP
10
10.150000
20
13.014734
30
-50.000031
70
192
0
VERTEX
8
LAMP
10
-10.250000
20
26.014734
30
-49.900032
70
192
0
VERTEX
8
LAMP
10
-10.250000
20
26.014734
30
-47.350029
70
192
0
VERTEX
8
LAMP
10
10.250000
20
26.014734
30
-47.350029
70
192
0
VERTEX
8
LAMP
10
10.150000
20
26.014734
30
-50.000031
70
192
0
VERTEX
8
LAMP
10
-10.250000
20
39.014732
30
-49.900032
70
192
0
VERTEX
8
LAMP
10
-10.250000
20
39.014732
30
-47.350029
70
192
0
VERTEX
8
LAMP
10
10.250000
20
39.014732
30
-47.350029
70
192
0
VERTEX
8
LAMP
10
10.150000
20
39.014732
30
-50.000031
70
192
0
VERTEX
8
LAMP
10
-10.250000
20
52.114731
30
-49.900032
70
192
0
VERTEX
8
LAMP
10
-10.250000
20
52.114731
30
-47.350029
70
192
0
VERTEX
8
LAMP
10
10.250000
20
52.114731
30
-47.350029
70
192
0
VERTEX
8
LAMP
10
10.150000
20
52.114731
30
-50.000031
70
192
0
VERTEX
8
LAMP
10
-10.250000
20
65.000000
30
-49.900032
70
192
0
VERTEX
8
LAMP
10
-10.150000
20
65.000000
30
-47.250031
70
192
0
VERTEX
8
LAMP
10
10.250000
20
65.000000
30
-47.350029
70
192
0
VERTEX
8
LAMP
10
10.150000
20
65.000000
30
-50.000031
70
192
0
VERTEX
8
LAMP
10
3.300000
20
-51.819500
30
-50.000130
70
192
0
VERTEX
8
LAMP
10
-3.300000
20
-51.819500
30
-50.000130
70
192
0
VERTEX
8
LAMP
10
3.300000
20
-39.205490
30
-50.000130
70
192
0
VERTEX
8
LAMP
10
-3.300000
20
-39.205490
30
-50.000130
70
192
0
VERTEX
8
LAMP
10
3.300000
20
-25.780525
30
-50.000130
70
192
0
VERTEX
8
LAMP
10
-3.300000
20
-25.780525
30
-50.000130
70
192
0
VERTEX
8
LAMP
10
3.300000
20
-13.202725
30
-50.000130
70
192
0
VERTEX
8
LAMP
10
-3.300000
20
-13.202725
30
-50.000130
70
192
0
VERTEX
8
LAMP
10
3.300000
20
0.211268
30
-50.000130
70
192
0
VERTEX
8
LAMP
10
-3.300000
20
0.211268
30
-50.000130
70
192
0
VERTEX
8
LAMP
10
3.300000
20
12.814734
30
-50.000130
70
192
0
VERTEX
8
LAMP
10
-3.300000
20
12.814734
30
-50.000130
70
192
0
VERTEX
8
LAMP
10
3.300000
20
26.214735
30
-50.000130
70
192
0
VERTEX
8
LAMP
10
-3.300000
20
26.214735
30
-50.000130
70
192
0
VERTEX
8
LAMP
10
3.300000
20
38.814732
30
-50.000130
70
192
0
VERTEX
8
LAMP
10
-3.300000
20
38.814732
30
-50.000130
70
192
0
VERTEX
8
LAMP
10
3.300000
20
-51.819500
30
-49.800129
70
192
0
VERTEX
8
LAMP
10
-3.300000
20
-51.819500
30
-49.800129
70
192
0
VERTEX
8
LAMP
10
3.300000
20
-39.205490
30
-49.800129
70
192
0
VERTEX
8
LAMP
10
-3.300000
20
-39.205490
30
-49.800129
70
192
0
VERTEX
8
LAMP
10
3.300000
20
-25.780525
30
-49.800129
70
192
0
VERTEX
8
LAMP
10
-3.300000
20
-25.780525
30
-49.800129
70
192
0
VERTEX
8
LAMP
10
3.300000
20
-13.202725
30
-49.800129
70
192
0
VERTEX
8
LAMP
10
-3.300000
20
-13.202725
30
-49.800129
70
192
0
VERTEX
8
LAMP
10
3.300000
20
0.211268
30
-49.800129
70
192
0
VERTEX
8
LAMP
10
-3.300000
20
0.211268
30
-49.800129
70
192
0
VERTEX
8
LAMP
10
3.300000
20
12.814734
30
-49.800129
70
192
0
VERTEX
8
LAMP
10
-3.300000
20
12.814734
30
-49.800129
70
192
0
VERTEX
8
LAMP
10
3.300000
20
26.214735
30
-49.800129
70
192
0
VERTEX
8
LAMP
10
-3.300000
20
26.214735
30
-49.800129
70
192
0
VERTEX
8
LAMP
10
3.300000
20
38.814732
30
-49.800129
70
192
0
VERTEX
8
LAMP
10
-3.300000
20
38.814732
30
-49.800129
70
192
0
VERTEX
8
LAMP
10
3.300000
20
-38.805489
30
-50.000130
70
192
0
VERTEX
8
LAMP
10
-3.300000
20
-38.805489
30
-50.000130
70
192
0
VERTEX
8
LAMP
10
3.300000
20
-26.180527
30
-50.000130
70
192
0
VERTEX
8
LAMP
10
-3.300000
20
-26.180527
30
-50.000130
70
192
0
VERTEX
8
LAMP
10
3.300000
20
-12.802726
30
-50.000130
70
192
0
VERTEX
8
LAMP
10
-3.300000
20
-12.802726
30
-50.000130
70
192
0
VERTEX
8
LAMP
10
3.300000
20
-0.188732
30
-50.000130
70
192
0
VERTEX
8
LAMP
10
-3.300000
20
-0.188732
30
-50.000130
70
192
0
VERTEX
8
LAMP
10
3.300000
20
13.214734
30
-50.000130
70
192
0
VERTEX
8
LAMP
10
-3.300000
20
13.214734
30
-50.000130
70
192
0
VERTEX
8
LAMP
10
3.300000
20
25.814734
30
-50.000130
70
192
0
VERTEX
8
LAMP
10
-3.300000
20
25.814734
30
-50.000130
70
192
0
VERTEX
8
LAMP
10
3.300000
20
39.214733
30
-50.000130
70
192
0
VERTEX
8
LAMP
10
-3.300000
20
39.214733
30
-50.000130
70
192
0
VERTEX
8
LAMP
10
3.300000
20
51.914730
30
-50.000130
70
192
0
VERTEX
8
LAMP
10
-3.300000
20
51.914730
30
-50.000130
70
192
0
VERTEX
8
LAMP
10
3.300000
20
-38.805489
30
-49.800129
70
192
0
VERTEX
8
LAMP
10
-3.300000
20
-38.805489
30
-49.800129
70
192
0
VERTEX
8
LAMP
10
3.300000
20
-26.180527
30
-49.800129
70
192
0
VERTEX
8
LAMP
10
-3.300000
20
-26.180527
30
-49.800129
70
192
0
VERTEX
8
LAMP
10
3.300000
20
-12.802726
30
-49.800129
70
192
0
VERTEX
8
LAMP
10
-3.300000
20
-12.802726
30
-49.800129
70
192
0
VERTEX
8
LAMP
10
3.300000
20
-0.188732
30
-49.800129
70
192
0
VERTEX
8
LAMP
10
-3.300000
20
-0.188732
30
-49.800129
70
192
0
VERTEX
8
LAMP
10
3.300000
20
13.214734
30
-49.800129
70
192
0
VERTEX
8
LAMP
10
-3.300000
20
13.214734
30
-49.800129
70
192
0
VERTEX
8
LAMP
10
3.300000
20
25.814734
30
-49.800129
70
192
0
VERTEX
8
LAMP
10
-3.300000
20
25.814734
30
-49.800129
70
192
0
VERTEX
8
LAMP
10
3.300000
20
39.214733
30
-49.800129
70
192
0
VERTEX
8
LAMP
10
-3.300000
20
39.214733
30
-49.800129
70
192
0
VERTEX
8
LAMP
10
3.300000
20
51.914730
30
-49.800129
70
192
0
VERTEX
8
LAMP
10
-3.300000
20
51.914730
30
-49.800129
70
192
0
VERTEX
8
LAMP
10
-3.499995
20
56.249989
30
-0.000001
70
192
0
VERTEX
8
LAMP
10
-4.130618
20
56.079189
30
-0.000001
70
192
0
VERTEX
8
LAMP
10
-4.579196
20
55.630611
30
-0.000001
70
192
0
VERTEX
8
LAMP
10
-4.749995
20
54.999989
30
-0.000001
70
192
0
VERTEX
8
LAMP
10
-4.579196
20
54.369366
30
-0.000001
70
192
0
VERTEX
8
LAMP
10
-4.130618
20
53.920788
30
0.000001
70
192
0
VERTEX
8
LAMP
10
-3.499995
20
53.749989
30
0.000001
70
192
0
VERTEX
8
LAMP
10
-2.869372
20
53.920788
30
0.000001
70
192
0
VERTEX
8
LAMP
10
-2.420794
20
54.369366
30
-0.000001
70
192
0
VERTEX
8
LAMP
10
-2.249995
20
54.999989
30
-0.000001
70
192
0
VERTEX
8
LAMP
10
-2.420794
20
55.630611
30
-0.000001
70
192
0
VERTEX
8
LAMP
10
-2.869372
20
56.079189
30
-0.000001
70
192
0
VERTEX
8
LAMP
10
-3.499995
20
55.746624
30
-6.000001
70
192
0
VERTEX
8
LAMP
10
-3.876670
20
55.644604
30
-6.000001
70
192
0
VERTEX
8
LAMP
10
-4.144607
20
55.376667
30
-6.000001
70
192
0
VERTEX
8
LAMP
10
-4.246627
20
54.999989
30
-6.000001
70
192
0
VERTEX
8
LAMP
10
-4.144607
20
54.623318
30
-6.000001
70
192
0
VERTEX
8
LAMP
10
-3.876670
20
54.355381
30
-6.000001
70
192
0
VERTEX
8
LAMP
10
-3.499995
20
54.253361
30
-6.000001
70
192
0
VERTEX
8
LAMP
10
-3.123321
20
54.355381
30
-6.000001
70
192
0
VERTEX
8
LAMP
10
-2.855384
20
54.623318
30
-6.000001
70
192
0
VERTEX
8
LAMP
10
-2.753364
20
54.999989
30
-6.000001
70
192
0
VERTEX
8
LAMP
10
-2.855384
20
55.376667
30
-6.000001
70
192
0
VERTEX
8
LAMP
10
-3.123321
20
55.644604
30
-6.000001
70
192
0
VERTEX
8
LAMP
10
-3.687495
20
55.187489
30
-6.000001
70
192
0
VERTEX
8
LAMP
10
-3.312495
20
55.187489
30
-6.000001
70
192
0
VERTEX
8
LAMP
10
-3.312495
20
54.812489
30
-6.000001
70
192
0
VERTEX
8
LAMP
10
-3.687495
20
54.812489
30
-6.000001
70
192
0
VERTEX
8
LAMP
10
-3.499995
20
55.250000
30
-44.911201
70
192
0
VERTEX
8
LAMP
10
-3.249995
20
55.000000
30
-44.911201
70
192
0
VERTEX
8
LAMP
10
-3.499995
20
54.750000
30
-44.911198
70
192
0
VERTEX
8
LAMP
10
-3.749995
20
55.000000
30
-44.911201
70
192
0
VERTEX
8
LAMP
10
-3.687495
20
55.187500
30
-44.911201
70
192
0
VERTEX
8
LAMP
10
-3.312495
20
55.187500
30
-44.911201
70
192
0
VERTEX
8
LAMP
10
-3.499995
20
55.249989
30
-6.000001
70
192
0
VERTEX
8
LAMP
10
-3.312495
20
54.812500
30
-44.911198
70
192
0
VERTEX
8
LAMP
10
-3.249995
20
54.999989
30
-6.000001
70
192
0
VERTEX
8
LAMP
10
-3.687495
20
54.812500
30
-44.911198
70
192
0
VERTEX
8
LAMP
10
-3.499995
20
54.749989
30
-6.000001
70
192
0
VERTEX
8
LAMP
10
-3.749995
20
54.999989
30
-6.000001
70
192
0
VERTEX
8
LAMP
10
-3.788745
20
55.288750
30
-44.911205
70
192
0
VERTEX
8
LAMP
10
-3.499995
20
55.384998
30
-44.911205
70
192
0
VERTEX
8
LAMP
10
-3.211245
20
55.288750
30
-44.911205
70
192
0
VERTEX
8
LAMP
10
-3.114995
20
55.000000
30
-44.911205
70
192
0
VERTEX
8
LAMP
10
-3.211245
20
54.711246
30
-44.911201
70
192
0
VERTEX
8
LAMP
10
-3.499995
20
54.614998
30
-44.911201
70
192
0
VERTEX
8
LAMP
10
-3.788745
20
54.711246
30
-44.911201
70
192
0
VERTEX
8
LAMP
10
-3.884995
20
55.000000
30
-44.911205
70
192
0
VERTEX
8
LAMP
10
-3.788745
20
55.288750
30
-46.500000
70
192
0
VERTEX
8
LAMP
10
-3.499995
20
55.384998
30
-46.500000
70
192
0
VERTEX
8
LAMP
10
-3.211245
20
55.288750
30
-46.500000
70
192
0
VERTEX
8
LAMP
10
-3.114995
20
55.000000
30
-46.500000
70
192
0
VERTEX
8
LAMP
10
-3.211245
20
54.711246
30
-46.499996
70
192
0
VERTEX
8
LAMP
10
-3.499995
20
54.614998
30
-46.499996
70
192
0
VERTEX
8
LAMP
10
-3.788745
20
54.711246
30
-46.499996
70
192
0
VERTEX
8
LAMP
10
-3.884995
20
55.000000
30
-46.500000
70
192
0
VERTEX
8
LAMP
10
3.500005
20
56.249989
30
-0.000001
70
192
0
VERTEX
8
LAMP
10
4.130628
20
56.079189
30
-0.000001
70
192
0
VERTEX
8
LAMP
10
4.579206
20
55.630611
30
-0.000001
70
192
0
VERTEX
8
LAMP
10
4.750005
20
54.999989
30
-0.000001
70
192
0
VERTEX
8
LAMP
10
4.579206
20
54.369366
30
-0.000001
70
192
0
VERTEX
8
LAMP
10
4.130628
20
53.920788
30
0.000001
70
192
0
VERTEX
8
LAMP
10
3.500005
20
53.749989
30
0.000001
70
192
0
VERTEX
8
LAMP
10
2.869382
20
53.920788
30
0.000001
70
192
0
VERTEX
8
LAMP
10
2.420804
20
54.369366
30
-0.000001
70
192
0
VERTEX
8
LAMP
10
2.250005
20
54.999989
30
-0.000001
70
192
0
VERTEX
8
LAMP
10
2.420804
20
55.630611
30
-0.000001
70
192
0
VERTEX
8
LAMP
10
2.869382
20
56.079189
30
-0.000001
70
192
0
VERTEX
8
LAMP
10
3.500005
20
55.746624
30
-6.000001
70
192
0
VERTEX
8
LAMP
10
3.876679
20
55.644604
30
-6.000001
70
192
0
VERTEX
8
LAMP
10
4.144616
20
55.376667
30
-6.000001
70
192
0
VERTEX
8
LAMP
10
4.246636
20
54.999989
30
-6.000001
70
192
0
VERTEX
8
LAMP
10
4.144616
20
54.623318
30
-6.000001
70
192
0
VERTEX
8
LAMP
10
3.876679
20
54.355381
30
-6.000001
70
192
0
VERTEX
8
LAMP
10
3.500005
20
54.253361
30
-6.000001
70
192
0
VERTEX
8
LAMP
10
3.123330
20
54.355381
30
-6.000001
70
192
0
VERTEX
8
LAMP
10
2.855393
20
54.623318
30
-6.000001
70
192
0
VERTEX
8
LAMP
10
2.753373
20
54.999989
30
-6.000001
70
192
0
VERTEX
8
LAMP
10
2.855393
20
55.376667
30
-6.000001
70
192
0
VERTEX
8
LAMP
10
3.123330
20
55.644604
30
-6.000001
70
192
0
VERTEX
8
LAMP
10
3.687505
20
55.187489
30
-6.000001
70
192
0
VERTEX
8
LAMP
10
3.312505
20
55.187489
30
-6.000001
70
192
0
VERTEX
8
LAMP
10
3.312505
20
54.812489
30
-6.000001
70
192
0
VERTEX
8
LAMP
10
3.687505
20
54.812489
30
-6.000001
70
192
0
VERTEX
8
LAMP
10
3.500005
20
55.250000
30
-44.911201
70
192
0
VERTEX
8
LAMP
10
3.250005
20
55.000000
30
-44.911201
70
192
0
VERTEX
8
LAMP
10
3.500005
20
54.750000
30
-44.911198
70
192
0
VERTEX
8
LAMP
10
3.750005
20
55.000000
30
-44.911201
70
192
0
VERTEX
8
LAMP
10
3.687505
20
55.187500
30
-44.911201
70
192
0
VERTEX
8
LAMP
10
3.312505
20
55.187500
30
-44.911201
70
192
0
VERTEX
8
LAMP
10
3.500005
20
55.249989
30
-6.000001
70
192
0
VERTEX
8
LAMP
10
3.312505
20
54.812500
30
-44.911198
70
192
0
VERTEX
8
LAMP
10
3.250005
20
54.999989
30
-6.000001
70
192
0
VERTEX
8
LAMP
10
3.687505
20
54.812500
30
-44.911198
70
192
0
VERTEX
8
LAMP
10
3.500005
20
54.749989
30
-6.000001
70
192
0
VERTEX
8
LAMP
10
3.750005
20
54.999989
30
-6.000001
70
192
0
VERTEX
8
LAMP
10
3.788755
20
55.288750
30
-44.911205
70
192
0
VERTEX
8
LAMP
10
3.500005
20
55.384998
30
-44.911205
70
192
0
VERTEX
8
LAMP
10
3.211255
20
55.288750
30
-44.911205
70
192
0
VERTEX
8
LAMP
10
3.115005
20
55.000000
30
-44.911205
70
192
0
VERTEX
8
LAMP
10
3.211255
20
54.711246
30
-44.911201
70
192
0
VERTEX
8
LAMP
10
3.500005
20
54.614998
30
-44.911201
70
192
0
VERTEX
8
LAMP
10
3.788755
20
54.711246
30
-44.911201
70
192
0
VERTEX
8
LAMP
10
3.885005
20
55.000000
30
-44.911205
70
192
0
VERTEX
8
LAMP
10
3.788755
20
55.288750
30
-46.500000
70
192
0
VERTEX
8
LAMP
10
3.500005
20
55.384998
30
-46.500000
70
192
0
VERTEX
8
LAMP
10
3.211255
20
55.288750
30
-46.500000
70
192
0
VERTEX
8
LAMP
10
3.115005
20
55.000000
30
-46.500000
70
192
0
VERTEX
8
LAMP
10
3.211255
20
54.711246
30
-46.499996
70
192
0
VERTEX
8
LAMP
10
3.500005
20
54.614998
30
-46.499996
70
192
0
VERTEX
8
LAMP
10
3.788755
20
54.711246
30
-46.499996
70
192
0
VERTEX
8
LAMP
10
3.885005
20
55.000000
30
-46.500000
70
192
0
VERTEX
8
LAMP
10
0
20
0
30
0
70
128
71
1
72
2
73
-14
0
VERTEX
8
LAMP
10
0
20
0
30
0
70
128
71
-1
72
14
73
13
0
VERTEX
8
LAMP
10
0
20
0
30
0
70
128
71
2
72
3
73
-15
0
VERTEX
8
LAMP
10
0
20
0
30
0
70
128
71
-2
72
15
73
14
0
VERTEX
8
LAMP
10
0
20
0
30
0
70
128
71
3
72
4
73
-16
0
VERTEX
8
LAMP
10
0
20
0
30
0
70
128
71
-3
72
16
73
15
0
VERTEX
8
LAMP
10
0
20
0
30
0
70
128
71
4
72
5
73
-17
0
VERTEX
8
LAMP
10
0
20
0
30
0
70
128
71
-4
72
17
73
16
0
VERTEX
8
LAMP
10
0
20
0
30
0
70
128
71
5
72
6
73
-18
0
VERTEX
8
LAMP
10
0
20
0
30
0
70
128
71
-5
72
18
73
17
0
VERTEX
8
LAMP
10
0
20
0
30
0
70
128
71
6
72
7
73
-19
0
VERTEX
8
LAMP
10
0
20
0
30
0
70
128
71
-6
72
19
73
18
0
VERTEX
8
LAMP
10
0
20
0
30
0
70
128
71
7
72
8
73
-20
0
VERTEX
8
LAMP
10
0
20
0
30
0
70
128
71
-7
72
20
73
19
0
VERTEX
8
LAMP
10
0
20
0
30
0
70
128
71
8
72
9
73
-21
0
VERTEX
8
LAMP
10
0
20
0
30
0
70
128
71
-8
72
21
73
20
0
VERTEX
8
LAMP
10
0
20
0
30
0
70
128
71
9
72
10
73
-22
0
VERTEX
8
LAMP
10
0
20
0
30
0
70
128
71
-9
72
22
73
21
0
VERTEX
8
LAMP
10
0
20
0
30
0
70
128
71
10
72
11
73
-23
0
VERTEX
8
LAMP
10
0
20
0
30
0
70
128
71
-10
72
23
73
22
0
VERTEX
8
LAMP
10
0
20
0
30
0
70
128
71
11
72
12
73
-24
0
VERTEX
8
LAMP
10
0
20
0
30
0
70
128
71
-11
72
24
73
23
0
VERTEX
8
LAMP
10
0
20
0
30
0
70
128
71
12
72
1
73
-13
0
VERTEX
8
LAMP
10
0
20
0
30
0
70
128
71
-12
72
13
73
24
0
VERTEX
8
LAMP
10
0
20
0
30
0
70
128
71
21
72
22
73
-23
0
VERTEX
8
LAMP
10
0
20
0
30
0
70
128
71
20
72
-21
73
-23
0
VERTEX
8
LAMP
10
0
20
0
30
0
70
128
71
19
72
-20
73
-23
0
VERTEX
8
LAMP
10
0
20
0
30
0
70
128
71
18
72
-19
73
-23
0
VERTEX
8
LAMP
10
0
20
0
30
0
70
128
71
17
72
-18
73
-23
0
VERTEX
8
LAMP
10
0
20
0
30
0
70
128
71
16
72
-17
73
-23
0
VERTEX
8
LAMP
10
0
20
0
30
0
70
128
71
15
72
-16
73
-23
0
VERTEX
8
LAMP
10
0
20
0
30
0
70
128
71
14
72
-15
73
-23
0
VERTEX
8
LAMP
10
0
20
0
30
0
70
128
71
13
72
-14
73
-23
0
VERTEX
8
LAMP
10
0
20
0
30
0
70
128
71
24
72
-13
73
23
0
VERTEX
8
LAMP
10
0
20
0
30
0
70
128
71
-4
72
-2
73
-6
0
VERTEX
8
LAMP
10
0
20
0
30
0
70
128
71
1
72
-12
73
2
0
VERTEX
8
LAMP
10
0
20
0
30
0
70
128
71
11
72
-10
73
12
0
VERTEX
8
LAMP
10
0
20
0
30
0
70
128
71
9
72
-8
73
10
0
VERTEX
8
LAMP
10
0
20
0
30
0
70
128
71
7
72
-6
73
8
0
VERTEX
8
LAMP
10
0
20
0
30
0
70
128
71
5
72
-4
73
6
0
VERTEX
8
LAMP
10
0
20
0
30
0
70
128
71
3
72
-2
73
4
0
VERTEX
8
LAMP
10
0
20
0
30
0
70
128
71
-12
72
-10
73
-2
0
VERTEX
8
LAMP
10
0
20
0
30
0
70
128
71
-8
72
-6
73
-10
0
VERTEX
8
LAMP
10
0
20
0
30
0
70
128
71
-10
72
-6
73
-2
0
VERTEX
8
LAMP
10
0
20
0
30
0
70
128
71
25
72
33
73
-29
0
VERTEX
8
LAMP
10
0
20
0
30
0
70
128
71
-25
72
29
73
35
0
VERTEX
8
LAMP
10
0
20
0
30
0
70
128
71
26
72
35
73
-29
0
VERTEX
8
LAMP
10
0
20
0
30
0
70
128
71
-26
72
29
73
34
0
VERTEX
8
LAMP
10
0
20
0
30
0
70
128
71
26
72
34
73
-30
0
VERTEX
8
LAMP
10
0
20
0
30
0
70
128
71
-26
72
30
73
37
0
VERTEX
8
LAMP
10
0
20
0
30
0
70
128
71
27
72
37
73
-30
0
VERTEX
8
LAMP
10
0
20
0
30
0
70
128
71
-27
72
30
73
36
0
VERTEX
8
LAMP
10
0
20
0
30
0
70
128
71
27
72
36
73
-31
0
VERTEX
8
LAMP
10
0
20
0
30
0
70
128
71
-27
72
31
73
39
0
VERTEX
8
LAMP
10
0
20
0
30
0
70
128
71
28
72
39
73
-31
0
VERTEX
8
LAMP
10
0
20
0
30
0
70
128
71
-28
72
31
73
38
0
VERTEX
8
LAMP
10
0
20
0
30
0
70
128
71
28
72
38
73
-32
0
VERTEX
8
LAMP
10
0
20
0
30
0
70
128
71
-28
72
32
73
40
0
VERTEX
8
LAMP
10
0
20
0
30
0
70
128
71
25
72
40
73
-32
0
VERTEX
8
LAMP
10
0
20
0
30
0
70
128
71
-25
72
32
73
33
0
VERTEX
8
LAMP
10
0
20
0
30
0
70
128
71
41
72
42
73
-29
0
VERTEX
8
LAMP
10
0
20
0
30
0
70
128
71
29
72
33
73
-41
0
VERTEX
8
LAMP
10
0
20
0
30
0
70
128
71
42
72
43
73
-34
0
VERTEX
8
LAMP
10
0
20
0
30
0
70
128
71
34
72
29
73
-42
0
VERTEX
8
LAMP
10
0
20
0
30
0
70
128
71
43
72
44
73
-30
0
VERTEX
8
LAMP
10
0
20
0
30
0
70
128
71
30
72
34
73
-43
0
VERTEX
8
LAMP
10
0
20
0
30
0
70
128
71
44
72
45
73
-36
0
VERTEX
8
LAMP
10
0
20
0
30
0
70
128
71
36
72
30
73
-44
0
VERTEX
8
LAMP
10
0
20
0
30
0
70
128
71
45
72
46
73
-31
0
VERTEX
8
LAMP
10
0
20
0
30
0
70
128
71
31
72
36
73
-45
0
VERTEX
8
LAMP
10
0
20
0
30
0
70
128
71
46
72
47
73
-38
0
VERTEX
8
LAMP
10
0
20
0
30
0
70
128
71
38
72
31
73
-46
0
VERTEX
8
LAMP
10
0
20
0
30
0
70
128
71
47
72
48
73
-32
0
VERTEX
8
LAMP
10
0
20
0
30
0
70
128
71
32
72
38
73
-47
0
VERTEX
8
LAMP
10
0
20
0
30
0
70
128
71
48
72
41
73
-33
0
VERTEX
8
LAMP
10
0
20
0
30
0
70
128
71
33
72
32
73
-48
0
VERTEX
8
LAMP
10
0
20
0
30
0
70
128
71
49
72
50
73
-42
0
VERTEX
8
LAMP
10
0
20
0
30
0
70
128
71
42
72
41
73
-49
0
VERTEX
8
LAMP
10
0
20
0
30
0
70
128
71
50
72
51
73
-43
0
VERTEX
8
LAMP
10
0
20
0
30
0
70
128
71
43
72
42
73
-50
0
VERTEX
8
LAMP
10
0
20
0
30
0
70
128
71
51
72
52
73
-44
0
VERTEX
8
LAMP
10
0
20
0
30
0
70
128
71
44
72
43
73
-51
0
VERTEX
8
LAMP
10
0
20
0
30
0
70
128
71
52
72
53
73
-45
0
VERTEX
8
LAMP
10
0
20
0
30
0
70
128
71
45
72
44
73
-52
0
VERTEX
8
LAMP
10
0
20
0
30
0
70
128
71
53
72
54
73
-46
0
VERTEX
8
LAMP
10
0
20
0
30
0
70
128
71
46
72
45
73
-53
0
VERTEX
8
LAMP
10
0
20
0
30
0
70
128
71
54
72
55
73
-47
0
VERTEX
8
LAMP
10
0
20
0
30
0
70
128
71
47
72
46
73
-54
0
VERTEX
8
LAMP
10
0
20
0
30
0
70
128
71
55
72
56
73
-48
0
VERTEX
8
LAMP
10
0
20
0
30
0
70
128
71
48
72
47
73
-55
0
VERTEX
8
LAMP
10
0
20
0
30
0
70
128
71
56
72
49
73
-41
0
VERTEX
8
LAMP
10
0
20
0
30
0
70
128
71
41
72
48
73
-56
0
VERTEX
8
LAMP
10
0
20
0
30
0
70
128
71
-57
72
70
73
58
0
VERTEX
8
LAMP
10
0
20
0
30
0
70
128
71
57
72
69
73
-70
0
VERTEX
8
LAMP
10
0
20
0
30
0
70
128
71
-58
72
71
73
59
0
VERTEX
8
LAMP
10
0
20
0
30
0
70
128
71
58
72
70
73
-71
0
VERTEX
8
LAMP
10
0
20
0
30
0
70
128
71
-59
72
72
73
60
0
VERTEX
8
LAMP
10
0
20
0
30
0
70
128
71
59
72
71
73
-72
0
VERTEX
8
LAMP
10
0
20
0
30
0
70
128
71
-60
72
73
73
61
0
VERTEX
8
LAMP
10
0
20
0
30
0
70
128
71
60
72
72
73
-73
0
VERTEX
8
LAMP
10
0
20
0
30
0
70
128
71
-61
72
74
73
62
0
VERTEX
8
LAMP
10
0
20
0
30
0
70
128
71
61
72
73
73
-74
0
VERTEX
8
LAMP
10
0
20
0
30
0
70
128
71
-62
72
75
73
63
0
VERTEX
8
LAMP
10
0
20
0
30
0
70
128
71
62
72
74
73
-75
0
VERTEX
8
LAMP
10
0
20
0
30
0
70
128
71
-63
72
76
73
64
0
VERTEX
8
LAMP
10
0
20
0
30
0
70
128
71
63
72
75
73
-76
0
VERTEX
8
LAMP
10
0
20
0
30
0
70
128
71
-64
72
77
73
65
0
VERTEX
8
LAMP
10
0
20
0
30
0
70
128
71
64
72
76
73
-77
0
VERTEX
8
LAMP
10
0
20
0
30
0
70
128
71
-65
72
78
73
66
0
VERTEX
8
LAMP
10
0
20
0
30
0
70
128
71
65
72
77
73
-78
0
VERTEX
8
LAMP
10
0
20
0
30
0
70
128
71
-66
72
79
73
67
0
VERTEX
8
LAMP
10
0
20
0
30
0
70
128
71
66
72
78
73
-79
0
VERTEX
8
LAMP
10
0
20
0
30
0
70
128
71
-67
72
80
73
68
0
VERTEX
8
LAMP
10
0
20
0
30
0
70
128
71
67
72
79
73
-80
0
VERTEX
8
LAMP
10
0
20
0
30
0
70
128
71
-68
72
69
73
57
0
VERTEX
8
LAMP
10
0
20
0
30
0
70
128
71
68
72
80
73
-69
0
VERTEX
8
LAMP
10
0
20
0
30
0
70
128
71
-77
72
79
73
78
0
VERTEX
8
LAMP
10
0
20
0
30
0
70
128
71
-76
72
-79
73
77
0
VERTEX
8
LAMP
10
0
20
0
30
0
70
128
71
-75
72
-79
73
76
0
VERTEX
8
LAMP
10
0
20
0
30
0
70
128
71
-74
72
-79
73
75
0
VERTEX
8
LAMP
10
0
20
0
30
0
70
128
71
-73
72
-79
73
74
0
VERTEX
8
LAMP
10
0
20
0
30
0
70
128
71
-72
72
-79
73
73
0
VERTEX
8
LAMP
10
0
20
0
30
0
70
128
71
-71
72
-79
73
72
0
VERTEX
8
LAMP
10
0
20
0
30
0
70
128
71
-70
72
-79
73
71
0
VERTEX
8
LAMP
10
0
20
0
30
0
70
128
71
-69
72
-79
73
70
0
VERTEX
8
LAMP
10
0
20
0
30
0
70
128
71
80
72
-79
73
69
0
VERTEX
8
LAMP
10
0
20
0
30
0
70
128
71
-60
72
-62
73
-58
0
VERTEX
8
LAMP
10
0
20
0
30
0
70
128
71
57
72
-58
73
68
0
VERTEX
8
LAMP
10
0
20
0
30
0
70
128
71
67
72
-68
73
66
0
VERTEX
8
LAMP
10
0
20
0
30
0
70
128
71
65
72
-66
73
64
0
VERTEX
8
LAMP
10
0
20
0
30
0
70
128
71
63
72
-64
73
62
0
VERTEX
8
LAMP
10
0
20
0
30
0
70
128
71
61
72
-62
73
60
0
VERTEX
8
LAMP
10
0
20
0
30
0
70
128
71
59
72
-60
73
58
0
VERTEX
8
LAMP
10
0
20
0
30
0
70
128
71
-68
72
-58
73
-66
0
VERTEX
8
LAMP
10
0
20
0
30
0
70
128
71
-64
72
-66
73
-62
0
VERTEX
8
LAMP
10
0
20
0
30
0
70
128
71
-66
72
-58
73
-62
0
VERTEX
8
LAMP
10
0
20
0
30
0
70
128
71
-81
72
85
73
89
0
VERTEX
8
LAMP
10
0
20
0
30
0
70
128
71
81
72
91
73
-85
0
VERTEX
8
LAMP
10
0
20
0
30
0
70
128
71
-82
72
85
73
91
0
VERTEX
8
LAMP
10
0
20
0
30
0
70
128
71
82
72
90
73
-85
0
VERTEX
8
LAMP
10
0
20
0
30
0
70
128
71
-82
72
86
73
90
0
VERTEX
8
LAMP
10
0
20
0
30
0
70
128
71
82
72
93
73
-86
0
VERTEX
8
LAMP
10
0
20
0
30
0
70
128
71
-83
72
86
73
93
0
VERTEX
8
LAMP
10
0
20
0
30
0
70
128
71
83
72
92
73
-86
0
VERTEX
8
LAMP
10
0
20
0
30
0
70
128
71
-83
72
87
73
92
0
VERTEX
8
LAMP
10
0
20
0
30
0
70
128
71
83
72
95
73
-87
0
VERTEX
8
LAMP
10
0
20
0
30
0
70
128
71
-84
72
87
73
95
0
VERTEX
8
LAMP
10
0
20
0
30
0
70
128
71
84
72
94
73
-87
0
VERTEX
8
LAMP
10
0
20
0
30
0
70
128
71
-84
72
88
73
94
0
VERTEX
8
LAMP
10
0
20
0
30
0
70
128
71
84
72
96
73
-88
0
VERTEX
8
LAMP
10
0
20
0
30
0
70
128
71
-81
72
88
73
96
0
VERTEX
8
LAMP
10
0
20
0
30
0
70
128
71
81
72
89
73
-88
0
VERTEX
8
LAMP
10
0
20
0
30
0
70
128
71
-97
72
85
73
98
0
VERTEX
8
LAMP
10
0
20
0
30
0
70
128
71
-85
72
97
73
89
0
VERTEX
8
LAMP
10
0
20
0
30
0
70
128
71
-98
72
90
73
99
0
VERTEX
8
LAMP
10
0
20
0
30
0
70
128
71
-90
72
98
73
85
0
VERTEX
8
LAMP
10
0
20
0
30
0
70
128
71
-99
72
86
73
100
0
VERTEX
8
LAMP
10
0
20
0
30
0
70
128
71
-86
72
99
73
90
0
VERTEX
8
LAMP
10
0
20
0
30
0
70
128
71
-100
72
92
73
101
0
VERTEX
8
LAMP
10
0
20
0
30
0
70
128
71
-92
72
100
73
86
0
VERTEX
8
LAMP
10
0
20
0
30
0
70
128
71
-101
72
87
73
102
0
VERTEX
8
LAMP
10
0
20
0
30
0
70
128
71
-87
72
101
73
92
0
VERTEX
8
LAMP
10
0
20
0
30
0
70
128
71
-102
72
94
73
103
0
VERTEX
8
LAMP
10
0
20
0
30
0
70
128
71
-94
72
102
73
87
0
VERTEX
8
LAMP
10
0
20
0
30
0
70
128
71
-103
72
88
73
104
0
VERTEX
8
LAMP
10
0
20
0
30
0
70
128
71
-88
72
103
73
94
0
VERTEX
8
LAMP
10
0
20
0
30
0
70
128
71
-104
72
89
73
97
0
VERTEX
8
LAMP
10
0
20
0
30
0
70
128
71
-89
72
104
73
88
0
VERTEX
8
LAMP
10
0
20
0
30
0
70
128
71
-105
72
98
73
106
0
VERTEX
8
LAMP
10
0
20
0
30
0
70
128
71
-98
72
105
73
97
0
VERTEX
8
LAMP
10
0
20
0
30
0
70
128
71
-106
72
99
73
107
0
VERTEX
8
LAMP
10
0
20
0
30
0
70
128
71
-99
72
106
73
98
0
VERTEX
8
LAMP
10
0
20
0
30
0
70
128
71
-107
72
100
73
108
0
VERTEX
8
LAMP
10
0
20
0
30
0
70
128
71
-100
72
107
73
99
0
VERTEX
8
LAMP
10
0
20
0
30
0
70
128
71
-108
72
101
73
109
0
VERTEX
8
LAMP
10
0
20
0
30
0
70
128
71
-101
72
108
73
100
0
VERTEX
8
LAMP
10
0
20
0
30
0
70
128
71
-109
72
102
73
110
0
VERTEX
8
LAMP
10
0
20
0
30
0
70
128
71
-102
72
109
73
101
0
VERTEX
8
LAMP
10
0
20
0
30
0
70
128
71
-110
72
103
73
111
0
VERTEX
8
LAMP
10
0
20
0
30
0
70
128
71
-103
72
110
73
102
0
VERTEX
8
LAMP
10
0
20
0
30
0
70
128
71
-111
72
104
73
112
0
VERTEX
8
LAMP
10
0
20
0
30
0
70
128
71
-104
72
111
73
103
0
VERTEX
8
LAMP
10
0
20
0
30
0
70
128
71
-112
72
97
73
105
0
VERTEX
8
LAMP
10
0
20
0
30
0
70
128
71
-97
72
112
73
104
0
VERTEX
8
LAMP
10
0
20
0
30
0
70
128
71
113
72
114
73
-115
0
VERTEX
8
LAMP
10
0
20
0
30
0
70
128
71
-113
72
115
73
-116
0
VERTEX
8
LAMP
10
0
20
0
30
0
70
128
71
117
72
118
73
-119
0
VERTEX
8
LAMP
10
0
20
0
30
0
70
128
71
-117
72
289
73
-120
0
VERTEX
8
LAMP
10
0
20
0
30
0
70
128
71
-117
72
290
73
-121
0
VERTEX
8
LAMP
10
0
20
0
30
0
70
128
71
121
72
122
73
-123
0
VERTEX
8
LAMP
10
0
20
0
30
0
70
128
71
-121
72
123
73
-124
0
VERTEX
8
LAMP
10
0
20
0
30
0
70
128
71
-117
72
-121
73
-124
0
VERTEX
8
LAMP
10
0
20
0
30
0
70
128
71
116
72
-117
73
-124
0
VERTEX
8
LAMP
10
0
20
0
30
0
70
128
71
-113
72
-116
73
-124
0
VERTEX
8
LAMP
10
0
20
0
30
0
70
128
71
125
72
-113
73
-124
0
VERTEX
8
LAMP
10
0
20
0
30
0
70
128
71
-124
72
291
73
-127
0
VERTEX
8
LAMP
10
0
20
0
30
0
70
128
71
-124
72
292
73
-128
0
VERTEX
8
LAMP
10
0
20
0
30
0
70
128
71
-125
72
-124
73
128
0
VERTEX
8
LAMP
10
0
20
0
30
0
70
128
71
128
72
292
73
-293
0
VERTEX
8
LAMP
10
0
20
0
30
0
70
128
71
-128
72
293
73
130
0
VERTEX
8
LAMP
10
0
20
0
30
0
70
128
71
127
72
291
73
-294
0
VERTEX
8
LAMP
10
0
20
0
30
0
70
128
71
-127
72
294
73
129
0
VERTEX
8
LAMP
10
0
20
0
30
0
70
128
71
126
72
124
73
-132
0
VERTEX
8
LAMP
10
0
20
0
30
0
70
128
71
-126
72
132
73
131
0
VERTEX
8
LAMP
10
0
20
0
30
0
70
128
71
124
72
123
73
-133
0
VERTEX
8
LAMP
10
0
20
0
30
0
70
128
71
-124
72
133
73
132
0
VERTEX
8
LAMP
10
0
20
0
30
0
70
128
71
123
72
122
73
-134
0
VERTEX
8
LAMP
10
0
20
0
30
0
70
128
71
-123
72
134
73
133
0
VERTEX
8
LAMP
10
0
20
0
30
0
70
128
71
122
72
121
73
-135
0
VERTEX
8
LAMP
10
0
20
0
30
0
70
128
71
-122
72
135
73
134
0
VERTEX
8
LAMP
10
0
20
0
30
0
70
128
71
121
72
290
73
-295
0
VERTEX
8
LAMP
10
0
20
0
30
0
70
128
71
-121
72
295
73
135
0
VERTEX
8
LAMP
10
0
20
0
30
0
70
128
71
120
72
289
73
-296
0
VERTEX
8
LAMP
10
0
20
0
30
0
70
128
71
-120
72
296
73
136
0
VERTEX
8
LAMP
10
0
20
0
30
0
70
128
71
119
72
118
73
-138
0
VERTEX
8
LAMP
10
0
20
0
30
0
70
128
71
-119
72
138
73
137
0
VERTEX
8
LAMP
10
0
20
0
30
0
70
128
71
118
72
117
73
-139
0
VERTEX
8
LAMP
10
0
20
0
30
0
70
128
71
-118
72
139
73
138
0
VERTEX
8
LAMP
10
0
20
0
30
0
70
128
71
117
72
116
73
-140
0
VERTEX
8
LAMP
10
0
20
0
30
0
70
128
71
-117
72
140
73
139
0
VERTEX
8
LAMP
10
0
20
0
30
0
70
128
71
116
72
115
73
-141
0
VERTEX
8
LAMP
10
0
20
0
30
0
70
128
71
-116
72
141
73
140
0
VERTEX
8
LAMP
10
0
20
0
30
0
70
128
71
115
72
114
73
-142
0
VERTEX
8
LAMP
10
0
20
0
30
0
70
128
71
-115
72
142
73
141
0
VERTEX
8
LAMP
10
0
20
0
30
0
70
128
71
114
72
113
73
-143
0
VERTEX
8
LAMP
10
0
20
0
30
0
70
128
71
-114
72
143
73
142
0
VERTEX
8
LAMP
10
0
20
0
30
0
70
128
71
113
72
125
73
-144
0
VERTEX
8
LAMP
10
0
20
0
30
0
70
128
71
-113
72
144
73
143
0
VERTEX
8
LAMP
10
0
20
0
30
0
70
128
71
125
72
128
73
-130
0
VERTEX
8
LAMP
10
0
20
0
30
0
70
128
71
-125
72
130
73
144
0
VERTEX
8
LAMP
10
0
20
0
30
0
70
128
71
285
72
286
73
-287
0
VERTEX
8
LAMP
10
0
20
0
30
0
70
128
71
284
72
-285
73
-287
0
VERTEX
8
LAMP
10
0
20
0
30
0
70
128
71
332
72
282
73
-283
0
VERTEX
8
LAMP
10
0
20
0
30
0
70
128
71
331
72
-281
73
-283
0
VERTEX
8
LAMP
10
0
20
0
30
0
70
128
71
279
72
-280
73
-283
0
VERTEX
8
LAMP
10
0
20
0
30
0
70
128
71
277
72
278
73
-279
0
VERTEX
8
LAMP
10
0
20
0
30
0
70
128
71
276
72
-277
73
-279
0
VERTEX
8
LAMP
10
0
20
0
30
0
70
128
71
-276
72
-279
73
-283
0
VERTEX
8
LAMP
10
0
20
0
30
0
70
128
71
-276
72
283
73
-284
0
VERTEX
8
LAMP
10
0
20
0
30
0
70
128
71
-276
72
-284
73
-287
0
VERTEX
8
LAMP
10
0
20
0
30
0
70
128
71
-276
72
287
73
-288
0
VERTEX
8
LAMP
10
0
20
0
30
0
70
128
71
-329
72
330
73
-276
0
VERTEX
8
LAMP
10
0
20
0
30
0
70
128
71
274
72
-273
73
-276
0
VERTEX
8
LAMP
10
0
20
0
30
0
70
128
71
-274
72
-276
73
288
0
VERTEX
8
LAMP
10
0
20
0
30
0
70
128
71
130
72
293
73
-297
0
VERTEX
8
LAMP
10
0
20
0
30
0
70
128
71
297
72
146
73
-130
0
VERTEX
8
LAMP
10
0
20
0
30
0
70
128
71
129
72
294
73
-298
0
VERTEX
8
LAMP
10
0
20
0
30
0
70
128
71
298
72
145
73
-129
0
VERTEX
8
LAMP
10
0
20
0
30
0
70
128
71
131
72
132
73
-148
0
VERTEX
8
LAMP
10
0
20
0
30
0
70
128
71
148
72
147
73
-131
0
VERTEX
8
LAMP
10
0
20
0
30
0
70
128
71
132
72
133
73
-149
0
VERTEX
8
LAMP
10
0
20
0
30
0
70
128
71
149
72
148
73
-132
0
VERTEX
8
LAMP
10
0
20
0
30
0
70
128
71
133
72
134
73
-150
0
VERTEX
8
LAMP
10
0
20
0
30
0
70
128
71
150
72
149
73
-133
0
VERTEX
8
LAMP
10
0
20
0
30
0
70
128
71
134
72
135
73
-151
0
VERTEX
8
LAMP
10
0
20
0
30
0
70
128
71
151
72
150
73
-134
0
VERTEX
8
LAMP
10
0
20
0
30
0
70
128
71
135
72
295
73
-299
0
VERTEX
8
LAMP
10
0
20
0
30
0
70
128
71
299
72
151
73
-135
0
VERTEX
8
LAMP
10
0
20
0
30
0
70
128
71
136
72
296
73
-300
0
VERTEX
8
LAMP
10
0
20
0
30
0
70
128
71
300
72
152
73
-136
0
VERTEX
8
LAMP
10
0
20
0
30
0
70
128
71
137
72
138
73
-154
0
VERTEX
8
LAMP
10
0
20
0
30
0
70
128
71
154
72
153
73
-137
0
VERTEX
8
LAMP
10
0
20
0
30
0
70
128
71
138
72
139
73
-155
0
VERTEX
8
LAMP
10
0
20
0
30
0
70
128
71
155
72
154
73
-138
0
VERTEX
8
LAMP
10
0
20
0
30
0
70
128
71
139
72
140
73
-156
0
VERTEX
8
LAMP
10
0
20
0
30
0
70
128
71
156
72
155
73
-139
0
VERTEX
8
LAMP
10
0
20
0
30
0
70
128
71
140
72
141
73
-157
0
VERTEX
8
LAMP
10
0
20
0
30
0
70
128
71
157
72
156
73
-140
0
VERTEX
8
LAMP
10
0
20
0
30
0
70
128
71
349
72
350
73
-352
0
VERTEX
8
LAMP
10
0
20
0
30
0
70
128
71
352
72
351
73
-349
0
VERTEX
8
LAMP
10
0
20
0
30
0
70
128
71
142
72
143
73
-159
0
VERTEX
8
LAMP
10
0
20
0
30
0
70
128
71
159
72
158
73
-142
0
VERTEX
8
LAMP
10
0
20
0
30
0
70
128
71
143
72
144
73
-160
0
VERTEX
8
LAMP
10
0
20
0
30
0
70
128
71
160
72
159
73
-143
0
VERTEX
8
LAMP
10
0
20
0
30
0
70
128
71
144
72
130
73
-146
0
VERTEX
8
LAMP
10
0
20
0
30
0
70
128
71
146
72
160
73
-144
0
VERTEX
8
LAMP
10
0
20
0
30
0
70
128
71
381
72
382
73
-384
0
VERTEX
8
LAMP
10
0
20
0
30
0
70
128
71
384
72
383
73
-381
0
VERTEX
8
LAMP
10
0
20
0
30
0
70
128
71
158
72
159
73
-175
0
VERTEX
8
LAMP
10
0
20
0
30
0
70
128
71
175
72
174
73
-158
0
VERTEX
8
LAMP
10
0
20
0
30
0
70
128
71
156
72
157
73
-173
0
VERTEX
8
LAMP
10
0
20
0
30
0
70
128
71
173
72
172
73
-156
0
VERTEX
8
LAMP
10
0
20
0
30
0
70
128
71
153
72
154
73
-170
0
VERTEX
8
LAMP
10
0
20
0
30
0
70
128
71
170
72
304
73
-153
0
VERTEX
8
LAMP
10
0
20
0
30
0
70
128
71
154
72
155
73
-171
0
VERTEX
8
LAMP
10
0
20
0
30
0
70
128
71
171
72
170
73
-154
0
VERTEX
8
LAMP
10
0
20
0
30
0
70
128
71
152
72
300
73
-169
0
VERTEX
8
LAMP
10
0
20
0
30
0
70
128
71
169
72
303
73
-152
0
VERTEX
8
LAMP
10
0
20
0
30
0
70
128
71
151
72
299
73
-168
0
VERTEX
8
LAMP
10
0
20
0
30
0
70
128
71
168
72
167
73
-151
0
VERTEX
8
LAMP
10
0
20
0
30
0
70
128
71
149
72
150
73
-166
0
VERTEX
8
LAMP
10
0
20
0
30
0
70
128
71
166
72
165
73
-149
0
VERTEX
8
LAMP
10
0
20
0
30
0
70
128
71
150
72
151
73
-167
0
VERTEX
8
LAMP
10
0
20
0
30
0
70
128
71
167
72
166
73
-150
0
VERTEX
8
LAMP
10
0
20
0
30
0
70
128
71
148
72
149
73
-165
0
VERTEX
8
LAMP
10
0
20
0
30
0
70
128
71
165
72
164
73
-148
0
VERTEX
8
LAMP
10
0
20
0
30
0
70
128
71
155
72
156
73
-172
0
VERTEX
8
LAMP
10
0
20
0
30
0
70
128
71
172
72
171
73
-155
0
VERTEX
8
LAMP
10
0
20
0
30
0
70
128
71
159
72
160
73
-176
0
VERTEX
8
LAMP
10
0
20
0
30
0
70
128
71
176
72
175
73
-159
0
VERTEX
8
LAMP
10
0
20
0
30
0
70
128
71
145
72
298
73
-302
0
VERTEX
8
LAMP
10
0
20
0
30
0
70
128
71
302
72
301
73
-145
0
VERTEX
8
LAMP
10
0
20
0
30
0
70
128
71
147
72
148
73
-164
0
VERTEX
8
LAMP
10
0
20
0
30
0
70
128
71
164
72
163
73
-147
0
VERTEX
8
LAMP
10
0
20
0
30
0
70
128
71
146
72
297
73
-161
0
VERTEX
8
LAMP
10
0
20
0
30
0
70
128
71
161
72
162
73
-146
0
VERTEX
8
LAMP
10
0
20
0
30
0
70
128
71
160
72
146
73
-162
0
VERTEX
8
LAMP
10
0
20
0
30
0
70
128
71
162
72
176
73
-160
0
VERTEX
8
LAMP
10
0
20
0
30
0
70
128
71
353
72
354
73
-356
0
VERTEX
8
LAMP
10
0
20
0
30
0
70
128
71
356
72
355
73
-353
0
VERTEX
8
LAMP
10
0
20
0
30
0
70
128
71
174
72
175
73
-191
0
VERTEX
8
LAMP
10
0
20
0
30
0
70
128
71
191
72
190
73
-174
0
VERTEX
8
LAMP
10
0
20
0
30
0
70
128
71
172
72
173
73
-189
0
VERTEX
8
LAMP
10
0
20
0
30
0
70
128
71
189
72
188
73
-172
0
VERTEX
8
LAMP
10
0
20
0
30
0
70
128
71
304
72
170
73
-186
0
VERTEX
8
LAMP
10
0
20
0
30
0
70
128
71
186
72
308
73
-304
0
VERTEX
8
LAMP
10
0
20
0
30
0
70
128
71
170
72
171
73
-187
0
VERTEX
8
LAMP
10
0
20
0
30
0
70
128
71
187
72
186
73
-170
0
VERTEX
8
LAMP
10
0
20
0
30
0
70
128
71
303
72
169
73
-185
0
VERTEX
8
LAMP
10
0
20
0
30
0
70
128
71
185
72
307
73
-303
0
VERTEX
8
LAMP
10
0
20
0
30
0
70
128
71
167
72
168
73
-184
0
VERTEX
8
LAMP
10
0
20
0
30
0
70
128
71
184
72
183
73
-167
0
VERTEX
8
LAMP
10
0
20
0
30
0
70
128
71
165
72
166
73
-182
0
VERTEX
8
LAMP
10
0
20
0
30
0
70
128
71
182
72
181
73
-165
0
VERTEX
8
LAMP
10
0
20
0
30
0
70
128
71
166
72
167
73
-183
0
VERTEX
8
LAMP
10
0
20
0
30
0
70
128
71
183
72
182
73
-166
0
VERTEX
8
LAMP
10
0
20
0
30
0
70
128
71
164
72
165
73
-181
0
VERTEX
8
LAMP
10
0
20
0
30
0
70
128
71
181
72
180
73
-164
0
VERTEX
8
LAMP
10
0
20
0
30
0
70
128
71
171
72
172
73
-188
0
VERTEX
8
LAMP
10
0
20
0
30
0
70
128
71
188
72
187
73
-171
0
VERTEX
8
LAMP
10
0
20
0
30
0
70
128
71
175
72
176
73
-192
0
VERTEX
8
LAMP
10
0
20
0
30
0
70
128
71
192
72
191
73
-175
0
VERTEX
8
LAMP
10
0
20
0
30
0
70
128
71
301
72
302
73
-306
0
VERTEX
8
LAMP
10
0
20
0
30
0
70
128
71
306
72
305
73
-301
0
VERTEX
8
LAMP
10
0
20
0
30
0
70
128
71
163
72
164
73
-180
0
VERTEX
8
LAMP
10
0
20
0
30
0
70
128
71
180
72
179
73
-163
0
VERTEX
8
LAMP
10
0
20
0
30
0
70
128
71
162
72
161
73
-177
0
VERTEX
8
LAMP
10
0
20
0
30
0
70
128
71
177
72
178
73
-162
0
VERTEX
8
LAMP
10
0
20
0
30
0
70
128
71
176
72
162
73
-178
0
VERTEX
8
LAMP
10
0
20
0
30
0
70
128
71
178
72
192
73
-176
0
VERTEX
8
LAMP
10
0
20
0
30
0
70
128
71
385
72
386
73
-388
0
VERTEX
8
LAMP
10
0
20
0
30
0
70
128
71
388
72
387
73
-385
0
VERTEX
8
LAMP
10
0
20
0
30
0
70
128
71
190
72
191
73
-207
0
VERTEX
8
LAMP
10
0
20
0
30
0
70
128
71
207
72
206
73
-190
0
VERTEX
8
LAMP
10
0
20
0
30
0
70
128
71
188
72
189
73
-205
0
VERTEX
8
LAMP
10
0
20
0
30
0
70
128
71
205
72
204
73
-188
0
VERTEX
8
LAMP
10
0
20
0
30
0
70
128
71
308
72
186
73
-202
0
VERTEX
8
LAMP
10
0
20
0
30
0
70
128
71
202
72
312
73
-308
0
VERTEX
8
LAMP
10
0
20
0
30
0
70
128
71
186
72
187
73
-203
0
VERTEX
8
LAMP
10
0
20
0
30
0
70
128
71
203
72
202
73
-186
0
VERTEX
8
LAMP
10
0
20
0
30
0
70
128
71
307
72
185
73
-201
0
VERTEX
8
LAMP
10
0
20
0
30
0
70
128
71
201
72
311
73
-307
0
VERTEX
8
LAMP
10
0
20
0
30
0
70
128
71
183
72
184
73
-200
0
VERTEX
8
LAMP
10
0
20
0
30
0
70
128
71
200
72
199
73
-183
0
VERTEX
8
LAMP
10
0
20
0
30
0
70
128
71
181
72
182
73
-198
0
VERTEX
8
LAMP
10
0
20
0
30
0
70
128
71
198
72
197
73
-181
0
VERTEX
8
LAMP
10
0
20
0
30
0
70
128
71
182
72
183
73
-199
0
VERTEX
8
LAMP
10
0
20
0
30
0
70
128
71
199
72
198
73
-182
0
VERTEX
8
LAMP
10
0
20
0
30
0
70
128
71
180
72
181
73
-197
0
VERTEX
8
LAMP
10
0
20
0
30
0
70
128
71
197
72
196
73
-180
0
VERTEX
8
LAMP
10
0
20
0
30
0
70
128
71
187
72
188
73
-204
0
VERTEX
8
LAMP
10
0
20
0
30
0
70
128
71
204
72
203
73
-187
0
VERTEX
8
LAMP
10
0
20
0
30
0
70
128
71
191
72
192
73
-208
0
VERTEX
8
LAMP
10
0
20
0
30
0
70
128
71
208
72
207
73
-191
0
VERTEX
8
LAMP
10
0
20
0
30
0
70
128
71
305
72
306
73
-310
0
VERTEX
8
LAMP
10
0
20
0
30
0
70
128
71
310
72
309
73
-305
0
VERTEX
8
LAMP
10
0
20
0
30
0
70
128
71
179
72
180
73
-196
0
VERTEX
8
LAMP
10
0
20
0
30
0
70
128
71
196
72
195
73
-179
0
VERTEX
8
LAMP
10
0
20
0
30
0
70
128
71
178
72
177
73
-193
0
VERTEX
8
LAMP
10
0
20
0
30
0
70
128
71
193
72
194
73
-178
0
VERTEX
8
LAMP
10
0
20
0
30
0
70
128
71
192
72
178
73
-194
0
VERTEX
8
LAMP
10
0
20
0
30
0
70
128
71
194
72
208
73
-192
0
VERTEX
8
LAMP
10
0
20
0
30
0
70
128
71
357
72
358
73
-360
0
VERTEX
8
LAMP
10
0
20
0
30
0
70
128
71
360
72
359
73
-357
0
VERTEX
8
LAMP
10
0
20
0
30
0
70
128
71
206
72
207
73
-223
0
VERTEX
8
LAMP
10
0
20
0
30
0
70
128
71
223
72
222
73
-206
0
VERTEX
8
LAMP
10
0
20
0
30
0
70
128
71
204
72
205
73
-221
0
VERTEX
8
LAMP
10
0
20
0
30
0
70
128
71
221
72
220
73
-204
0
VERTEX
8
LAMP
10
0
20
0
30
0
70
128
71
312
72
202
73
-218
0
VERTEX
8
LAMP
10
0
20
0
30
0
70
128
71
218
72
316
73
-312
0
VERTEX
8
LAMP
10
0
20
0
30
0
70
128
71
202
72
203
73
-219
0
VERTEX
8
LAMP
10
0
20
0
30
0
70
128
71
219
72
218
73
-202
0
VERTEX
8
LAMP
10
0
20
0
30
0
70
128
71
311
72
201
73
-217
0
VERTEX
8
LAMP
10
0
20
0
30
0
70
128
71
217
72
315
73
-311
0
VERTEX
8
LAMP
10
0
20
0
30
0
70
128
71
199
72
200
73
-216
0
VERTEX
8
LAMP
10
0
20
0
30
0
70
128
71
216
72
215
73
-199
0
VERTEX
8
LAMP
10
0
20
0
30
0
70
128
71
197
72
198
73
-214
0
VERTEX
8
LAMP
10
0
20
0
30
0
70
128
71
214
72
213
73
-197
0
VERTEX
8
LAMP
10
0
20
0
30
0
70
128
71
198
72
199
73
-215
0
VERTEX
8
LAMP
10
0
20
0
30
0
70
128
71
215
72
214
73
-198
0
VERTEX
8
LAMP
10
0
20
0
30
0
70
128
71
196
72
197
73
-213
0
VERTEX
8
LAMP
10
0
20
0
30
0
70
128
71
213
72
212
73
-196
0
VERTEX
8
LAMP
10
0
20
0
30
0
70
128
71
203
72
204
73
-220
0
VERTEX
8
LAMP
10
0
20
0
30
0
70
128
71
220
72
219
73
-203
0
VERTEX
8
LAMP
10
0
20
0
30
0
70
128
71
207
72
208
73
-224
0
VERTEX
8
LAMP
10
0
20
0
30
0
70
128
71
224
72
223
73
-207
0
VERTEX
8
LAMP
10
0
20
0
30
0
70
128
71
309
72
310
73
-314
0
VERTEX
8
LAMP
10
0
20
0
30
0
70
128
71
314
72
313
73
-309
0
VERTEX
8
LAMP
10
0
20
0
30
0
70
128
71
195
72
196
73
-212
0
VERTEX
8
LAMP
10
0
20
0
30
0
70
128
71
212
72
211
73
-195
0
VERTEX
8
LAMP
10
0
20
0
30
0
70
128
71
194
72
193
73
-209
0
VERTEX
8
LAMP
10
0
20
0
30
0
70
128
71
209
72
210
73
-194
0
VERTEX
8
LAMP
10
0
20
0
30
0
70
128
71
208
72
194
73
-210
0
VERTEX
8
LAMP
10
0
20
0
30
0
70
128
71
210
72
224
73
-208
0
VERTEX
8
LAMP
10
0
20
0
30
0
70
128
71
389
72
390
73
-392
0
VERTEX
8
LAMP
10
0
20
0
30
0
70
128
71
392
72
391
73
-389
0
VERTEX
8
LAMP
10
0
20
0
30
0
70
128
71
222
72
223
73
-239
0
VERTEX
8
LAMP
10
0
20
0
30
0
70
128
71
239
72
238
73
-222
0
VERTEX
8
LAMP
10
0
20
0
30
0
70
128
71
220
72
221
73
-237
0
VERTEX
8
LAMP
10
0
20
0
30
0
70
128
71
237
72
236
73
-220
0
VERTEX
8
LAMP
10
0
20
0
30
0
70
128
71
316
72
218
73
-234
0
VERTEX
8
LAMP
10
0
20
0
30
0
70
128
71
234
72
320
73
-316
0
VERTEX
8
LAMP
10
0
20
0
30
0
70
128
71
218
72
219
73
-235
0
VERTEX
8
LAMP
10
0
20
0
30
0
70
128
71
235
72
234
73
-218
0
VERTEX
8
LAMP
10
0
20
0
30
0
70
128
71
315
72
217
73
-233
0
VERTEX
8
LAMP
10
0
20
0
30
0
70
128
71
233
72
319
73
-315
0
VERTEX
8
LAMP
10
0
20
0
30
0
70
128
71
215
72
216
73
-232
0
VERTEX
8
LAMP
10
0
20
0
30
0
70
128
71
232
72
231
73
-215
0
VERTEX
8
LAMP
10
0
20
0
30
0
70
128
71
213
72
214
73
-230
0
VERTEX
8
LAMP
10
0
20
0
30
0
70
128
71
230
72
229
73
-213
0
VERTEX
8
LAMP
10
0
20
0
30
0
70
128
71
214
72
215
73
-231
0
VERTEX
8
LAMP
10
0
20
0
30
0
70
128
71
231
72
230
73
-214
0
VERTEX
8
LAMP
10
0
20
0
30
0
70
128
71
212
72
213
73
-229
0
VERTEX
8
LAMP
10
0
20
0
30
0
70
128
71
229
72
228
73
-212
0
VERTEX
8
LAMP
10
0
20
0
30
0
70
128
71
219
72
220
73
-236
0
VERTEX
8
LAMP
10
0
20
0
30
0
70
128
71
236
72
235
73
-219
0
VERTEX
8
LAMP
10
0
20
0
30
0
70
128
71
223
72
224
73
-240
0
VERTEX
8
LAMP
10
0
20
0
30
0
70
128
71
240
72
239
73
-223
0
VERTEX
8
LAMP
10
0
20
0
30
0
70
128
71
313
72
314
73
-318
0
VERTEX
8
LAMP
10
0
20
0
30
0
70
128
71
318
72
317
73
-313
0
VERTEX
8
LAMP
10
0
20
0
30
0
70
128
71
211
72
212
73
-228
0
VERTEX
8
LAMP
10
0
20
0
30
0
70
128
71
228
72
227
73
-211
0
VERTEX
8
LAMP
10
0
20
0
30
0
70
128
71
210
72
209
73
-225
0
VERTEX
8
LAMP
10
0
20
0
30
0
70
128
71
225
72
226
73
-210
0
VERTEX
8
LAMP
10
0
20
0
30
0
70
128
71
224
72
210
73
-226
0
VERTEX
8
LAMP
10
0
20
0
30
0
70
128
71
226
72
240
73
-224
0
VERTEX
8
LAMP
10
0
20
0
30
0
70
128
71
361
72
362
73
-364
0
VERTEX
8
LAMP
10
0
20
0
30
0
70
128
71
364
72
363
73
-361
0
VERTEX
8
LAMP
10
0
20
0
30
0
70
128
71
238
72
239
73
-255
0
VERTEX
8
LAMP
10
0
20
0
30
0
70
128
71
255
72
254
73
-238
0
VERTEX
8
LAMP
10
0
20
0
30
0
70
128
71
236
72
237
73
-253
0
VERTEX
8
LAMP
10
0
20
0
30
0
70
128
71
253
72
252
73
-236
0
VERTEX
8
LAMP
10
0
20
0
30
0
70
128
71
320
72
234
73
-250
0
VERTEX
8
LAMP
10
0
20
0
30
0
70
128
71
250
72
324
73
-320
0
VERTEX
8
LAMP
10
0
20
0
30
0
70
128
71
234
72
235
73
-251
0
VERTEX
8
LAMP
10
0
20
0
30
0
70
128
71
251
72
250
73
-234
0
VERTEX
8
LAMP
10
0
20
0
30
0
70
128
71
319
72
233
73
-249
0
VERTEX
8
LAMP
10
0
20
0
30
0
70
128
71
249
72
323
73
-319
0
VERTEX
8
LAMP
10
0
20
0
30
0
70
128
71
231
72
232
73
-248
0
VERTEX
8
LAMP
10
0
20
0
30
0
70
128
71
248
72
247
73
-231
0
VERTEX
8
LAMP
10
0
20
0
30
0
70
128
71
229
72
230
73
-246
0
VERTEX
8
LAMP
10
0
20
0
30
0
70
128
71
246
72
245
73
-229
0
VERTEX
8
LAMP
10
0
20
0
30
0
70
128
71
230
72
231
73
-247
0
VERTEX
8
LAMP
10
0
20
0
30
0
70
128
71
247
72
246
73
-230
0
VERTEX
8
LAMP
10
0
20
0
30
0
70
128
71
228
72
229
73
-245
0
VERTEX
8
LAMP
10
0
20
0
30
0
70
128
71
245
72
244
73
-228
0
VERTEX
8
LAMP
10
0
20
0
30
0
70
128
71
235
72
236
73
-252
0
VERTEX
8
LAMP
10
0
20
0
30
0
70
128
71
252
72
251
73
-235
0
VERTEX
8
LAMP
10
0
20
0
30
0
70
128
71
239
72
240
73
-256
0
VERTEX
8
LAMP
10
0
20
0
30
0
70
128
71
256
72
255
73
-239
0
VERTEX
8
LAMP
10
0
20
0
30
0
70
128
71
317
72
318
73
-322
0
VERTEX
8
LAMP
10
0
20
0
30
0
70
128
71
322
72
321
73
-317
0
VERTEX
8
LAMP
10
0
20
0
30
0
70
128
71
227
72
228
73
-244
0
VERTEX
8
LAMP
10
0
20
0
30
0
70
128
71
244
72
243
73
-227
0
VERTEX
8
LAMP
10
0
20
0
30
0
70
128
71
226
72
225
73
-241
0
VERTEX
8
LAMP
10
0
20
0
30
0
70
128
71
241
72
242
73
-226
0
VERTEX
8
LAMP
10
0
20
0
30
0
70
128
71
240
72
226
73
-242
0
VERTEX
8
LAMP
10
0
20
0
30
0
70
128
71
242
72
256
73
-240
0
VERTEX
8
LAMP
10
0
20
0
30
0
70
128
71
393
72
394
73
-396
0
VERTEX
8
LAMP
10
0
20
0
30
0
70
128
71
396
72
395
73
-393
0
VERTEX
8
LAMP
10
0
20
0
30
0
70
128
71
254
72
255
73
-271
0
VERTEX
8
LAMP
10
0
20
0
30
0
70
128
71
271
72
270
73
-254
0
VERTEX
8
LAMP
10
0
20
0
30
0
70
128
71
252
72
253
73
-269
0
VERTEX
8
LAMP
10
0
20
0
30
0
70
128
71
269
72
268
73
-252
0
VERTEX
8
LAMP
10
0
20
0
30
0
70
128
71
324
72
250
73
-266
0
VERTEX
8
LAMP
10
0
20
0
30
0
70
128
71
266
72
328
73
-324
0
VERTEX
8
LAMP
10
0
20
0
30
0
70
128
71
250
72
251
73
-267
0
VERTEX
8
LAMP
10
0
20
0
30
0
70
128
71
267
72
266
73
-250
0
VERTEX
8
LAMP
10
0
20
0
30
0
70
128
71
323
72
249
73
-265
0
VERTEX
8
LAMP
10
0
20
0
30
0
70
128
71
265
72
327
73
-323
0
VERTEX
8
LAMP
10
0
20
0
30
0
70
128
71
247
72
248
73
-264
0
VERTEX
8
LAMP
10
0
20
0
30
0
70
128
71
264
72
263
73
-247
0
VERTEX
8
LAMP
10
0
20
0
30
0
70
128
71
245
72
246
73
-262
0
VERTEX
8
LAMP
10
0
20
0
30
0
70
128
71
262
72
261
73
-245
0
VERTEX
8
LAMP
10
0
20
0
30
0
70
128
71
246
72
247
73
-263
0
VERTEX
8
LAMP
10
0
20
0
30
0
70
128
71
263
72
262
73
-246
0
VERTEX
8
LAMP
10
0
20
0
30
0
70
128
71
244
72
245
73
-261
0
VERTEX
8
LAMP
10
0
20
0
30
0
70
128
71
261
72
260
73
-244
0
VERTEX
8
LAMP
10
0
20
0
30
0
70
128
71
251
72
252
73
-268
0
VERTEX
8
LAMP
10
0
20
0
30
0
70
128
71
268
72
267
73
-251
0
VERTEX
8
LAMP
10
0
20
0
30
0
70
128
71
255
72
256
73
-272
0
VERTEX
8
LAMP
10
0
20
0
30
0
70
128
71
272
72
271
73
-255
0
VERTEX
8
LAMP
10
0
20
0
30
0
70
128
71
321
72
322
73
-326
0
VERTEX
8
LAMP
10
0
20
0
30
0
70
128
71
326
72
325
73
-321
0
VERTEX
8
LAMP
10
0
20
0
30
0
70
128
71
243
72
244
73
-260
0
VERTEX
8
LAMP
10
0
20
0
30
0
70
128
71
260
72
259
73
-243
0
VERTEX
8
LAMP
10
0
20
0
30
0
70
128
71
242
72
241
73
-257
0
VERTEX
8
LAMP
10
0
20
0
30
0
70
128
71
257
72
258
73
-242
0
VERTEX
8
LAMP
10
0
20
0
30
0
70
128
71
256
72
242
73
-258
0
VERTEX
8
LAMP
10
0
20
0
30
0
70
128
71
258
72
272
73
-256
0
VERTEX
8
LAMP
10
0
20
0
30
0
70
128
71
269
72
270
73
-286
0
VERTEX
8
LAMP
10
0
20
0
30
0
70
128
71
286
72
285
73
-269
0
VERTEX
8
LAMP
10
0
20
0
30
0
70
128
71
270
72
271
73
-287
0
VERTEX
8
LAMP
10
0
20
0
30
0
70
128
71
287
72
286
73
-270
0
VERTEX
8
LAMP
10
0
20
0
30
0
70
128
71
268
72
269
73
-285
0
VERTEX
8
LAMP
10
0
20
0
30
0
70
128
71
285
72
284
73
-268
0
VERTEX
8
LAMP
10
0
20
0
30
0
70
128
71
328
72
266
73
-282
0
VERTEX
8
LAMP
10
0
20
0
30
0
70
128
71
282
72
332
73
-328
0
VERTEX
8
LAMP
10
0
20
0
30
0
70
128
71
266
72
267
73
-283
0
VERTEX
8
LAMP
10
0
20
0
30
0
70
128
71
283
72
282
73
-266
0
VERTEX
8
LAMP
10
0
20
0
30
0
70
128
71
327
72
265
73
-281
0
VERTEX
8
LAMP
10
0
20
0
30
0
70
128
71
281
72
331
73
-327
0
VERTEX
8
LAMP
10
0
20
0
30
0
70
128
71
263
72
264
73
-280
0
VERTEX
8
LAMP
10
0
20
0
30
0
70
128
71
280
72
279
73
-263
0
VERTEX
8
LAMP
10
0
20
0
30
0
70
128
71
261
72
262
73
-278
0
VERTEX
8
LAMP
10
0
20
0
30
0
70
128
71
278
72
277
73
-261
0
VERTEX
8
LAMP
10
0
20
0
30
0
70
128
71
262
72
263
73
-279
0
VERTEX
8
LAMP
10
0
20
0
30
0
70
128
71
279
72
278
73
-262
0
VERTEX
8
LAMP
10
0
20
0
30
0
70
128
71
260
72
261
73
-277
0
VERTEX
8
LAMP
10
0
20
0
30
0
70
128
71
277
72
276
73
-260
0
VERTEX
8
LAMP
10
0
20
0
30
0
70
128
71
267
72
268
73
-284
0
VERTEX
8
LAMP
10
0
20
0
30
0
70
128
71
284
72
283
73
-267
0
VERTEX
8
LAMP
10
0
20
0
30
0
70
128
71
271
72
272
73
-288
0
VERTEX
8
LAMP
10
0
20
0
30
0
70
128
71
288
72
287
73
-271
0
VERTEX
8
LAMP
10
0
20
0
30
0
70
128
71
325
72
326
73
-275
0
VERTEX
8
LAMP
10
0
20
0
30
0
70
128
71
275
72
329
73
-325
0
VERTEX
8
LAMP
10
0
20
0
30
0
70
128
71
259
72
260
73
-276
0
VERTEX
8
LAMP
10
0
20
0
30
0
70
128
71
276
72
330
73
-259
0
VERTEX
8
LAMP
10
0
20
0
30
0
70
128
71
258
72
257
73
-273
0
VERTEX
8
LAMP
10
0
20
0
30
0
70
128
71
273
72
274
73
-258
0
VERTEX
8
LAMP
10
0
20
0
30
0
70
128
71
272
72
258
73
-274
0
VERTEX
8
LAMP
10
0
20
0
30
0
70
128
71
274
72
288
73
-272
0
VERTEX
8
LAMP
10
0
20
0
30
0
70
128
71
124
72
126
73
-291
0
VERTEX
8
LAMP
10
0
20
0
30
0
70
128
71
329
72
275
73
-330
0
VERTEX
8
LAMP
10
0
20
0
30
0
70
128
71
-117
72
119
73
-289
0
VERTEX
8
LAMP
10
0
20
0
30
0
70
128
71
-117
72
120
73
-290
0
VERTEX
8
LAMP
10
0
20
0
30
0
70
128
71
-124
72
127
73
-292
0
VERTEX
8
LAMP
10
0
20
0
30
0
70
128
71
292
72
-127
73
293
0
VERTEX
8
LAMP
10
0
20
0
30
0
70
128
71
129
72
-293
73
127
0
VERTEX
8
LAMP
10
0
20
0
30
0
70
128
71
291
72
-126
73
294
0
VERTEX
8
LAMP
10
0
20
0
30
0
70
128
71
131
72
-294
73
126
0
VERTEX
8
LAMP
10
0
20
0
30
0
70
128
71
290
72
-120
73
295
0
VERTEX
8
LAMP
10
0
20
0
30
0
70
128
71
136
72
-295
73
120
0
VERTEX
8
LAMP
10
0
20
0
30
0
70
128
71
289
72
-119
73
296
0
VERTEX
8
LAMP
10
0
20
0
30
0
70
128
71
137
72
-296
73
119
0
VERTEX
8
LAMP
10
0
20
0
30
0
70
128
71
-283
72
281
73
-332
0
VERTEX
8
LAMP
10
0
20
0
30
0
70
128
71
-283
72
280
73
-331
0
VERTEX
8
LAMP
10
0
20
0
30
0
70
128
71
-276
72
273
73
-329
0
VERTEX
8
LAMP
10
0
20
0
30
0
70
128
71
293
72
-129
73
297
0
VERTEX
8
LAMP
10
0
20
0
30
0
70
128
71
145
72
-297
73
129
0
VERTEX
8
LAMP
10
0
20
0
30
0
70
128
71
294
72
-131
73
298
0
VERTEX
8
LAMP
10
0
20
0
30
0
70
128
71
147
72
-298
73
131
0
VERTEX
8
LAMP
10
0
20
0
30
0
70
128
71
295
72
-136
73
299
0
VERTEX
8
LAMP
10
0
20
0
30
0
70
128
71
152
72
-299
73
136
0
VERTEX
8
LAMP
10
0
20
0
30
0
70
128
71
296
72
-137
73
300
0
VERTEX
8
LAMP
10
0
20
0
30
0
70
128
71
153
72
-300
73
137
0
VERTEX
8
LAMP
10
0
20
0
30
0
70
128
71
300
72
-153
73
169
0
VERTEX
8
LAMP
10
0
20
0
30
0
70
128
71
304
72
-169
73
153
0
VERTEX
8
LAMP
10
0
20
0
30
0
70
128
71
299
72
-152
73
168
0
VERTEX
8
LAMP
10
0
20
0
30
0
70
128
71
303
72
-168
73
152
0
VERTEX
8
LAMP
10
0
20
0
30
0
70
128
71
298
72
-147
73
302
0
VERTEX
8
LAMP
10
0
20
0
30
0
70
128
71
163
72
-302
73
147
0
VERTEX
8
LAMP
10
0
20
0
30
0
70
128
71
297
72
-145
73
161
0
VERTEX
8
LAMP
10
0
20
0
30
0
70
128
71
301
72
-161
73
145
0
VERTEX
8
LAMP
10
0
20
0
30
0
70
128
71
169
72
-304
73
185
0
VERTEX
8
LAMP
10
0
20
0
30
0
70
128
71
308
72
-185
73
304
0
VERTEX
8
LAMP
10
0
20
0
30
0
70
128
71
168
72
-303
73
184
0
VERTEX
8
LAMP
10
0
20
0
30
0
70
128
71
307
72
-184
73
303
0
VERTEX
8
LAMP
10
0
20
0
30
0
70
128
71
302
72
-163
73
306
0
VERTEX
8
LAMP
10
0
20
0
30
0
70
128
71
179
72
-306
73
163
0
VERTEX
8
LAMP
10
0
20
0
30
0
70
128
71
161
72
-301
73
177
0
VERTEX
8
LAMP
10
0
20
0
30
0
70
128
71
305
72
-177
73
301
0
VERTEX
8
LAMP
10
0
20
0
30
0
70
128
71
185
72
-308
73
201
0
VERTEX
8
LAMP
10
0
20
0
30
0
70
128
71
312
72
-201
73
308
0
VERTEX
8
LAMP
10
0
20
0
30
0
70
128
71
184
72
-307
73
200
0
VERTEX
8
LAMP
10
0
20
0
30
0
70
128
71
311
72
-200
73
307
0
VERTEX
8
LAMP
10
0
20
0
30
0
70
128
71
306
72
-179
73
310
0
VERTEX
8
LAMP
10
0
20
0
30
0
70
128
71
195
72
-310
73
179
0
VERTEX
8
LAMP
10
0
20
0
30
0
70
128
71
177
72
-305
73
193
0
VERTEX
8
LAMP
10
0
20
0
30
0
70
128
71
309
72
-193
73
305
0
VERTEX
8
LAMP
10
0
20
0
30
0
70
128
71
201
72
-312
73
217
0
VERTEX
8
LAMP
10
0
20
0
30
0
70
128
71
316
72
-217
73
312
0
VERTEX
8
LAMP
10
0
20
0
30
0
70
128
71
200
72
-311
73
216
0
VERTEX
8
LAMP
10
0
20
0
30
0
70
128
71
315
72
-216
73
311
0
VERTEX
8
LAMP
10
0
20
0
30
0
70
128
71
310
72
-195
73
314
0
VERTEX
8
LAMP
10
0
20
0
30
0
70
128
71
211
72
-314
73
195
0
VERTEX
8
LAMP
10
0
20
0
30
0
70
128
71
193
72
-309
73
209
0
VERTEX
8
LAMP
10
0
20
0
30
0
70
128
71
313
72
-209
73
309
0
VERTEX
8
LAMP
10
0
20
0
30
0
70
128
71
217
72
-316
73
233
0
VERTEX
8
LAMP
10
0
20
0
30
0
70
128
71
320
72
-233
73
316
0
VERTEX
8
LAMP
10
0
20
0
30
0
70
128
71
216
72
-315
73
232
0
VERTEX
8
LAMP
10
0
20
0
30
0
70
128
71
319
72
-232
73
315
0
VERTEX
8
LAMP
10
0
20
0
30
0
70
128
71
314
72
-211
73
318
0
VERTEX
8
LAMP
10
0
20
0
30
0
70
128
71
227
72
-318
73
211
0
VERTEX
8
LAMP
10
0
20
0
30
0
70
128
71
209
72
-313
73
225
0
VERTEX
8
LAMP
10
0
20
0
30
0
70
128
71
317
72
-225
73
313
0
VERTEX
8
LAMP
10
0
20
0
30
0
70
128
71
233
72
-320
73
249
0
VERTEX
8
LAMP
10
0
20
0
30
0
70
128
71
324
72
-249
73
320
0
VERTEX
8
LAMP
10
0
20
0
30
0
70
128
71
232
72
-319
73
248
0
VERTEX
8
LAMP
10
0
20
0
30
0
70
128
71
323
72
-248
73
319
0
VERTEX
8
LAMP
10
0
20
0
30
0
70
128
71
318
72
-227
73
322
0
VERTEX
8
LAMP
10
0
20
0
30
0
70
128
71
243
72
-322
73
227
0
VERTEX
8
LAMP
10
0
20
0
30
0
70
128
71
225
72
-317
73
241
0
VERTEX
8
LAMP
10
0
20
0
30
0
70
128
71
321
72
-241
73
317
0
VERTEX
8
LAMP
10
0
20
0
30
0
70
128
71
249
72
-324
73
265
0
VERTEX
8
LAMP
10
0
20
0
30
0
70
128
71
328
72
-265
73
324
0
VERTEX
8
LAMP
10
0
20
0
30
0
70
128
71
248
72
-323
73
264
0
VERTEX
8
LAMP
10
0
20
0
30
0
70
128
71
327
72
-264
73
323
0
VERTEX
8
LAMP
10
0
20
0
30
0
70
128
71
322
72
-243
73
326
0
VERTEX
8
LAMP
10
0
20
0
30
0
70
128
71
259
72
-326
73
243
0
VERTEX
8
LAMP
10
0
20
0
30
0
70
128
71
241
72
-321
73
257
0
VERTEX
8
LAMP
10
0
20
0
30
0
70
128
71
325
72
-257
73
321
0
VERTEX
8
LAMP
10
0
20
0
30
0
70
128
71
265
72
-328
73
281
0
VERTEX
8
LAMP
10
0
20
0
30
0
70
128
71
332
72
-281
73
328
0
VERTEX
8
LAMP
10
0
20
0
30
0
70
128
71
264
72
-327
73
280
0
VERTEX
8
LAMP
10
0
20
0
30
0
70
128
71
331
72
-280
73
327
0
VERTEX
8
LAMP
10
0
20
0
30
0
70
128
71
326
72
-259
73
275
0
VERTEX
8
LAMP
10
0
20
0
30
0
70
128
71
330
72
-275
73
259
0
VERTEX
8
LAMP
10
0
20
0
30
0
70
128
71
257
72
-325
73
273
0
VERTEX
8
LAMP
10
0
20
0
30
0
70
128
71
329
72
-273
73
325
0
VERTEX
8
LAMP
10
0
20
0
30
0
70
128
71
141
72
142
73
-334
0
VERTEX
8
LAMP
10
0
20
0
30
0
70
128
71
334
72
333
73
-141
0
VERTEX
8
LAMP
10
0
20
0
30
0
70
128
71
157
72
141
73
-333
0
VERTEX
8
LAMP
10
0
20
0
30
0
70
128
71
333
72
335
73
-157
0
VERTEX
8
LAMP
10
0
20
0
30
0
70
128
71
142
72
158
73
-336
0
VERTEX
8
LAMP
10
0
20
0
30
0
70
128
71
336
72
334
73
-142
0
VERTEX
8
LAMP
10
0
20
0
30
0
70
128
71
158
72
157
73
-335
0
VERTEX
8
LAMP
10
0
20
0
30
0
70
128
71
335
72
336
73
-158
0
VERTEX
8
LAMP
10
0
20
0
30
0
70
128
71
173
72
174
73
-338
0
VERTEX
8
LAMP
10
0
20
0
30
0
70
128
71
338
72
337
73
-173
0
VERTEX
8
LAMP
10
0
20
0
30
0
70
128
71
174
72
190
73
-340
0
VERTEX
8
LAMP
10
0
20
0
30
0
70
128
71
340
72
338
73
-174
0
VERTEX
8
LAMP
10
0
20
0
30
0
70
128
71
190
72
189
73
-339
0
VERTEX
8
LAMP
10
0
20
0
30
0
70
128
71
339
72
340
73
-190
0
VERTEX
8
LAMP
10
0
20
0
30
0
70
128
71
189
72
173
73
-337
0
VERTEX
8
LAMP
10
0
20
0
30
0
70
128
71
337
72
339
73
-189
0
VERTEX
8
LAMP
10
0
20
0
30
0
70
128
71
205
72
206
73
-342
0
VERTEX
8
LAMP
10
0
20
0
30
0
70
128
71
342
72
341
73
-205
0
VERTEX
8
LAMP
10
0
20
0
30
0
70
128
71
206
72
222
73
-344
0
VERTEX
8
LAMP
10
0
20
0
30
0
70
128
71
344
72
342
73
-206
0
VERTEX
8
LAMP
10
0
20
0
30
0
70
128
71
222
72
221
73
-343
0
VERTEX
8
LAMP
10
0
20
0
30
0
70
128
71
343
72
344
73
-222
0
VERTEX
8
LAMP
10
0
20
0
30
0
70
128
71
221
72
205
73
-341
0
VERTEX
8
LAMP
10
0
20
0
30
0
70
128
71
341
72
343
73
-221
0
VERTEX
8
LAMP
10
0
20
0
30
0
70
128
71
237
72
238
73
-346
0
VERTEX
8
LAMP
10
0
20
0
30
0
70
128
71
346
72
345
73
-237
0
VERTEX
8
LAMP
10
0
20
0
30
0
70
128
71
238
72
254
73
-348
0
VERTEX
8
LAMP
10
0
20
0
30
0
70
128
71
348
72
346
73
-238
0
VERTEX
8
LAMP
10
0
20
0
30
0
70
128
71
254
72
253
73
-347
0
VERTEX
8
LAMP
10
0
20
0
30
0
70
128
71
347
72
348
73
-254
0
VERTEX
8
LAMP
10
0
20
0
30
0
70
128
71
253
72
237
73
-345
0
VERTEX
8
LAMP
10
0
20
0
30
0
70
128
71
345
72
347
73
-253
0
VERTEX
8
LAMP
10
0
20
0
30
0
70
128
71
333
72
334
73
-350
0
VERTEX
8
LAMP
10
0
20
0
30
0
70
128
71
350
72
349
73
-333
0
VERTEX
8
LAMP
10
0
20
0
30
0
70
128
71
334
72
336
73
-352
0
VERTEX
8
LAMP
10
0
20
0
30
0
70
128
71
352
72
350
73
-334
0
VERTEX
8
LAMP
10
0
20
0
30
0
70
128
71
336
72
335
73
-351
0
VERTEX
8
LAMP
10
0
20
0
30
0
70
128
71
351
72
352
73
-336
0
VERTEX
8
LAMP
10
0
20
0
30
0
70
128
71
335
72
333
73
-349
0
VERTEX
8
LAMP
10
0
20
0
30
0
70
128
71
349
72
351
73
-335
0
VERTEX
8
LAMP
10
0
20
0
30
0
70
128
71
337
72
338
73
-354
0
VERTEX
8
LAMP
10
0
20
0
30
0
70
128
71
354
72
353
73
-337
0
VERTEX
8
LAMP
10
0
20
0
30
0
70
128
71
338
72
340
73
-356
0
VERTEX
8
LAMP
10
0
20
0
30
0
70
128
71
356
72
354
73
-338
0
VERTEX
8
LAMP
10
0
20
0
30
0
70
128
71
340
72
339
73
-355
0
VERTEX
8
LAMP
10
0
20
0
30
0
70
128
71
355
72
356
73
-340
0
VERTEX
8
LAMP
10
0
20
0
30
0
70
128
71
339
72
337
73
-353
0
VERTEX
8
LAMP
10
0
20
0
30
0
70
128
71
353
72
355
73
-339
0
VERTEX
8
LAMP
10
0
20
0
30
0
70
128
71
341
72
342
73
-358
0
VERTEX
8
LAMP
10
0
20
0
30
0
70
128
71
358
72
357
73
-341
0
VERTEX
8
LAMP
10
0
20
0
30
0
70
128
71
342
72
344
73
-360
0
VERTEX
8
LAMP
10
0
20
0
30
0
70
128
71
360
72
358
73
-342
0
VERTEX
8
LAMP
10
0
20
0
30
0
70
128
71
344
72
343
73
-359
0
VERTEX
8
LAMP
10
0
20
0
30
0
70
128
71
359
72
360
73
-344
0
VERTEX
8
LAMP
10
0
20
0
30
0
70
128
71
343
72
341
73
-357
0
VERTEX
8
LAMP
10
0
20
0
30
0
70
128
71
357
72
359
73
-343
0
VERTEX
8
LAMP
10
0
20
0
30
0
70
128
71
345
72
346
73
-362
0
VERTEX
8
LAMP
10
0
20
0
30
0
70
128
71
362
72
361
73
-345
0
VERTEX
8
LAMP
10
0
20
0
30
0
70
128
71
346
72
348
73
-364
0
VERTEX
8
LAMP
10
0
20
0
30
0
70
128
71
364
72
362
73
-346
0
VERTEX
8
LAMP
10
0
20
0
30
0
70
128
71
348
72
347
73
-363
0
VERTEX
8
LAMP
10
0
20
0
30
0
70
128
71
363
72
364
73
-348
0
VERTEX
8
LAMP
10
0
20
0
30
0
70
128
71
347
72
345
73
-361
0
VERTEX
8
LAMP
10
0
20
0
30
0
70
128
71
361
72
363
73
-347
0
VERTEX
8
LAMP
10
0
20
0
30
0
70
128
71
157
72
158
73
-366
0
VERTEX
8
LAMP
10
0
20
0
30
0
70
128
71
366
72
365
73
-157
0
VERTEX
8
LAMP
10
0
20
0
30
0
70
128
71
158
72
174
73
-368
0
VERTEX
8
LAMP
10
0
20
0
30
0
70
128
71
368
72
366
73
-158
0
VERTEX
8
LAMP
10
0
20
0
30
0
70
128
71
174
72
173
73
-367
0
VERTEX
8
LAMP
10
0
20
0
30
0
70
128
71
367
72
368
73
-174
0
VERTEX
8
LAMP
10
0
20
0
30
0
70
128
71
173
72
157
73
-365
0
VERTEX
8
LAMP
10
0
20
0
30
0
70
128
71
365
72
367
73
-173
0
VERTEX
8
LAMP
10
0
20
0
30
0
70
128
71
189
72
190
73
-370
0
VERTEX
8
LAMP
10
0
20
0
30
0
70
128
71
370
72
369
73
-189
0
VERTEX
8
LAMP
10
0
20
0
30
0
70
128
71
190
72
206
73
-372
0
VERTEX
8
LAMP
10
0
20
0
30
0
70
128
71
372
72
370
73
-190
0
VERTEX
8
LAMP
10
0
20
0
30
0
70
128
71
206
72
205
73
-371
0
VERTEX
8
LAMP
10
0
20
0
30
0
70
128
71
371
72
372
73
-206
0
VERTEX
8
LAMP
10
0
20
0
30
0
70
128
71
205
72
189
73
-369
0
VERTEX
8
LAMP
10
0
20
0
30
0
70
128
71
369
72
371
73
-205
0
VERTEX
8
LAMP
10
0
20
0
30
0
70
128
71
221
72
222
73
-374
0
VERTEX
8
LAMP
10
0
20
0
30
0
70
128
71
374
72
373
73
-221
0
VERTEX
8
LAMP
10
0
20
0
30
0
70
128
71
222
72
238
73
-376
0
VERTEX
8
LAMP
10
0
20
0
30
0
70
128
71
376
72
374
73
-222
0
VERTEX
8
LAMP
10
0
20
0
30
0
70
128
71
238
72
237
73
-375
0
VERTEX
8
LAMP
10
0
20
0
30
0
70
128
71
375
72
376
73
-238
0
VERTEX
8
LAMP
10
0
20
0
30
0
70
128
71
237
72
221
73
-373
0
VERTEX
8
LAMP
10
0
20
0
30
0
70
128
71
373
72
375
73
-237
0
VERTEX
8
LAMP
10
0
20
0
30
0
70
128
71
253
72
254
73
-378
0
VERTEX
8
LAMP
10
0
20
0
30
0
70
128
71
378
72
377
73
-253
0
VERTEX
8
LAMP
10
0
20
0
30
0
70
128
71
254
72
270
73
-380
0
VERTEX
8
LAMP
10
0
20
0
30
0
70
128
71
380
72
378
73
-254
0
VERTEX
8
LAMP
10
0
20
0
30
0
70
128
71
270
72
269
73
-379
0
VERTEX
8
LAMP
10
0
20
0
30
0
70
128
71
379
72
380
73
-270
0
VERTEX
8
LAMP
10
0
20
0
30
0
70
128
71
269
72
253
73
-377
0
VERTEX
8
LAMP
10
0
20
0
30
0
70
128
71
377
72
379
73
-269
0
VERTEX
8
LAMP
10
0
20
0
30
0
70
128
71
365
72
366
73
-382
0
VERTEX
8
LAMP
10
0
20
0
30
0
70
128
71
382
72
381
73
-365
0
VERTEX
8
LAMP
10
0
20
0
30
0
70
128
71
366
72
368
73
-384
0
VERTEX
8
LAMP
10
0
20
0
30
0
70
128
71
384
72
382
73
-366
0
VERTEX
8
LAMP
10
0
20
0
30
0
70
128
71
368
72
367
73
-383
0
VERTEX
8
LAMP
10
0
20
0
30
0
70
128
71
383
72
384
73
-368
0
VERTEX
8
LAMP
10
0
20
0
30
0
70
128
71
367
72
365
73
-381
0
VERTEX
8
LAMP
10
0
20
0
30
0
70
128
71
381
72
383
73
-367
0
VERTEX
8
LAMP
10
0
20
0
30
0
70
128
71
369
72
370
73
-386
0
VERTEX
8
LAMP
10
0
20
0
30
0
70
128
71
386
72
385
73
-369
0
VERTEX
8
LAMP
10
0
20
0
30
0
70
128
71
370
72
372
73
-388
0
VERTEX
8
LAMP
10
0
20
0
30
0
70
128
71
388
72
386
73
-370
0
VERTEX
8
LAMP
10
0
20
0
30
0
70
128
71
372
72
371
73
-387
0
VERTEX
8
LAMP
10
0
20
0
30
0
70
128
71
387
72
388
73
-372
0
VERTEX
8
LAMP
10
0
20
0
30
0
70
128
71
371
72
369
73
-385
0
VERTEX
8
LAMP
10
0
20
0
30
0
70
128
71
385
72
387
73
-371
0
VERTEX
8
LAMP
10
0
20
0
30
0
70
128
71
373
72
374
73
-390
0
VERTEX
8
LAMP
10
0
20
0
30
0
70
128
71
390
72
389
73
-373
0
VERTEX
8
LAMP
10
0
20
0
30
0
70
128
71
374
72
376
73
-392
0
VERTEX
8
LAMP
10
0
20
0
30
0
70
128
71
392
72
390
73
-374
0
VERTEX
8
LAMP
10
0
20
0
30
0
70
128
71
376
72
375
73
-391
0
VERTEX
8
LAMP
10
0
20
0
30
0
70
128
71
391
72
392
73
-376
0
VERTEX
8
LAMP
10
0
20
0
30
0
70
128
71
375
72
373
73
-389
0
VERTEX
8
LAMP
10
0
20
0
30
0
70
128
71
389
72
391
73
-375
0
VERTEX
8
LAMP
10
0
20
0
30
0
70
128
71
377
72
378
73
-394
0
VERTEX
8
LAMP
10
0
20
0
30
0
70
128
71
394
72
393
73
-377
0
VERTEX
8
LAMP
10
0
20
0
30
0
70
128
71
378
72
380
73
-396
0
VERTEX
8
LAMP
10
0
20
0
30
0
70
128
71
396
72
394
73
-378
0
VERTEX
8
LAMP
10
0
20
0
30
0
70
128
71
380
72
379
73
-395
0
VERTEX
8
LAMP
10
0
20
0
30
0
70
128
71
395
72
396
73
-380
0
VERTEX
8
LAMP
10
0
20
0
30
0
70
128
71
379
72
377
73
-393
0
VERTEX
8
LAMP
10
0
20
0
30
0
70
128
71
393
72
395
73
-379
0
VERTEX
8
LAMP
10
0
20
0
30
0
70
128
71
-397
72
410
73
398
0
VERTEX
8
LAMP
10
0
20
0
30
0
70
128
71
397
72
409
73
-410
0
VERTEX
8
LAMP
10
0
20
0
30
0
70
128
71
-398
72
411
73
399
0
VERTEX
8
LAMP
10
0
20
0
30
0
70
128
71
398
72
410
73
-411
0
VERTEX
8
LAMP
10
0
20
0
30
0
70
128
71
-399
72
412
73
400
0
VERTEX
8
LAMP
10
0
20
0
30
0
70
128
71
399
72
411
73
-412
0
VERTEX
8
LAMP
10
0
20
0
30
0
70
128
71
-400
72
413
73
401
0
VERTEX
8
LAMP
10
0
20
0
30
0
70
128
71
400
72
412
73
-413
0
VERTEX
8
LAMP
10
0
20
0
30
0
70
128
71
-401
72
414
73
402
0
VERTEX
8
LAMP
10
0
20
0
30
0
70
128
71
401
72
413
73
-414
0
VERTEX
8
LAMP
10
0
20
0
30
0
70
128
71
-402
72
415
73
403
0
VERTEX
8
LAMP
10
0
20
0
30
0
70
128
71
402
72
414
73
-415
0
VERTEX
8
LAMP
10
0
20
0
30
0
70
128
71
-403
72
416
73
404
0
VERTEX
8
LAMP
10
0
20
0
30
0
70
128
71
403
72
415
73
-416
0
VERTEX
8
LAMP
10
0
20
0
30
0
70
128
71
-404
72
417
73
405
0
VERTEX
8
LAMP
10
0
20
0
30
0
70
128
71
404
72
416
73
-417
0
VERTEX
8
LAMP
10
0
20
0
30
0
70
128
71
-405
72
418
73
406
0
VERTEX
8
LAMP
10
0
20
0
30
0
70
128
71
405
72
417
73
-418
0
VERTEX
8
LAMP
10
0
20
0
30
0
70
128
71
-406
72
419
73
407
0
VERTEX
8
LAMP
10
0
20
0
30
0
70
128
71
406
72
418
73
-419
0
VERTEX
8
LAMP
10
0
20
0
30
0
70
128
71
-407
72
420
73
408
0
VERTEX
8
LAMP
10
0
20
0
30
0
70
128
71
407
72
419
73
-420
0
VERTEX
8
LAMP
10
0
20
0
30
0
70
128
71
-408
72
409
73
397
0
VERTEX
8
LAMP
10
0
20
0
30
0
70
128
71
408
72
420
73
-409
0
VERTEX
8
LAMP
10
0
20
0
30
0
70
128
71
-417
72
419
73
418
0
VERTEX
8
LAMP
10
0
20
0
30
0
70
128
71
-416
72
-419
73
417
0
VERTEX
8
LAMP
10
0
20
0
30
0
70
128
71
-415
72
-419
73
416
0
VERTEX
8
LAMP
10
0
20
0
30
0
70
128
71
-414
72
-419
73
415
0
VERTEX
8
LAMP
10
0
20
0
30
0
70
128
71
-413
72
-419
73
414
0
VERTEX
8
LAMP
10
0
20
0
30
0
70
128
71
-412
72
-419
73
413
0
VERTEX
8
LAMP
10
0
20
0
30
0
70
128
71
-411
72
-419
73
412
0
VERTEX
8
LAMP
10
0
20
0
30
0
70
128
71
-410
72
-419
73
411
0
VERTEX
8
LAMP
10
0
20
0
30
0
70
128
71
-409
72
-419
73
410
0
VERTEX
8
LAMP
10
0
20
0
30
0
70
128
71
420
72
-419
73
409
0
VERTEX
8
LAMP
10
0
20
0
30
0
70
128
71
-400
72
-402
73
-398
0
VERTEX
8
LAMP
10
0
20
0
30
0
70
128
71
397
72
-398
73
408
0
VERTEX
8
LAMP
10
0
20
0
30
0
70
128
71
407
72
-408
73
406
0
VERTEX
8
LAMP
10
0
20
0
30
0
70
128
71
405
72
-406
73
404
0
VERTEX
8
LAMP
10
0
20
0
30
0
70
128
71
403
72
-404
73
402
0
VERTEX
8
LAMP
10
0
20
0
30
0
70
128
71
401
72
-402
73
400
0
VERTEX
8
LAMP
10
0
20
0
30
0
70
128
71
399
72
-400
73
398
0
VERTEX
8
LAMP
10
0
20
0
30
0
70
128
71
-408
72
-398
73
-406
0
VERTEX
8
LAMP
10
0
20
0
30
0
70
128
71
-404
72
-406
73
-402
0
VERTEX
8
LAMP
10
0
20
0
30
0
70
128
71
-406
72
-398
73
-402
0
VERTEX
8
LAMP
10
0
20
0
30
0
70
128
71
-421
72
425
73
429
0
VERTEX
8
LAMP
10
0
20
0
30
0
70
128
71
421
72
431
73
-425
0
VERTEX
8
LAMP
10
0
20
0
30
0
70
128
71
-422
72
425
73
431
0
VERTEX
8
LAMP
10
0
20
0
30
0
70
128
71
422
72
430
73
-425
0
VERTEX
8
LAMP
10
0
20
0
30
0
70
128
71
-422
72
426
73
430
0
VERTEX
8
LAMP
10
0
20
0
30
0
70
128
71
422
72
433
73
-426
0
VERTEX
8
LAMP
10
0
20
0
30
0
70
128
71
-423
72
426
73
433
0
VERTEX
8
LAMP
10
0
20
0
30
0
70
128
71
423
72
432
73
-426
0
VERTEX
8
LAMP
10
0
20
0
30
0
70
128
71
-423
72
427
73
432
0
VERTEX
8
LAMP
10
0
20
0
30
0
70
128
71
423
72
435
73
-427
0
VERTEX
8
LAMP
10
0
20
0
30
0
70
128
71
-424
72
427
73
435
0
VERTEX
8
LAMP
10
0
20
0
30
0
70
128
71
424
72
434
73
-427
0
VERTEX
8
LAMP
10
0
20
0
30
0
70
128
71
-424
72
428
73
434
0
VERTEX
8
LAMP
10
0
20
0
30
0
70
128
71
424
72
436
73
-428
0
VERTEX
8
LAMP
10
0
20
0
30
0
70
128
71
-421
72
428
73
436
0
VERTEX
8
LAMP
10
0
20
0
30
0
70
128
71
421
72
429
73
-428
0
VERTEX
8
LAMP
10
0
20
0
30
0
70
128
71
-437
72
425
73
438
0
VERTEX
8
LAMP
10
0
20
0
30
0
70
128
71
-425
72
437
73
429
0
VERTEX
8
LAMP
10
0
20
0
30
0
70
128
71
-438
72
430
73
439
0
VERTEX
8
LAMP
10
0
20
0
30
0
70
128
71
-430
72
438
73
425
0
VERTEX
8
LAMP
10
0
20
0
30
0
70
128
71
-439
72
426
73
440
0
VERTEX
8
LAMP
10
0
20
0
30
0
70
128
71
-426
72
439
73
430
0
VERTEX
8
LAMP
10
0
20
0
30
0
70
128
71
-440
72
432
73
441
0
VERTEX
8
LAMP
10
0
20
0
30
0
70
128
71
-432
72
440
73
426
0
VERTEX
8
LAMP
10
0
20
0
30
0
70
128
71
-441
72
427
73
442
0
VERTEX
8
LAMP
10
0
20
0
30
0
70
128
71
-427
72
441
73
432
0
VERTEX
8
LAMP
10
0
20
0
30
0
70
128
71
-442
72
434
73
443
0
VERTEX
8
LAMP
10
0
20
0
30
0
70
128
71
-434
72
442
73
427
0
VERTEX
8
LAMP
10
0
20
0
30
0
70
128
71
-443
72
428
73
444
0
VERTEX
8
LAMP
10
0
20
0
30
0
70
128
71
-428
72
443
73
434
0
VERTEX
8
LAMP
10
0
20
0
30
0
70
128
71
-444
72
429
73
437
0
VERTEX
8
LAMP
10
0
20
0
30
0
70
128
71
-429
72
444
73
428
0
VERTEX
8
LAMP
10
0
20
0
30
0
70
128
71
-445
72
438
73
446
0
VERTEX
8
LAMP
10
0
20
0
30
0
70
128
71
-438
72
445
73
437
0
VERTEX
8
LAMP
10
0
20
0
30
0
70
128
71
-446
72
439
73
447
0
VERTEX
8
LAMP
10
0
20
0
30
0
70
128
71
-439
72
446
73
438
0
VERTEX
8
LAMP
10
0
20
0
30
0
70
128
71
-447
72
440
73
448
0
VERTEX
8
LAMP
10
0
20
0
30
0
70
128
71
-440
72
447
73
439
0
VERTEX
8
LAMP
10
0
20
0
30
0
70
128
71
-448
72
441
73
449
0
VERTEX
8
LAMP
10
0
20
0
30
0
70
128
71
-441
72
448
73
440
0
VERTEX
8
LAMP
10
0
20
0
30
0
70
128
71
-449
72
442
73
450
0
VERTEX
8
LAMP
10
0
20
0
30
0
70
128
71
-442
72
449
73
441
0
VERTEX
8
LAMP
10
0
20
0
30
0
70
128
71
-450
72
443
73
451
0
VERTEX
8
LAMP
10
0
20
0
30
0
70
128
71
-443
72
450
73
442
0
VERTEX
8
LAMP
10
0
20
0
30
0
70
128
71
-451
72
444
73
452
0
VERTEX
8
LAMP
10
0
20
0
30
0
70
128
71
-444
72
451
73
443
0
VERTEX
8
LAMP
10
0
20
0
30
0
70
128
71
-452
72
437
73
445
0
VERTEX
8
LAMP
10
0
20
0
30
0
70
128
71
-437
72
452
73
444
0
VERTEX
8
LAMP
10
0
20
0
30
0
70
128
71
453
72
454
73
-466
0
VERTEX
8
LAMP
10
0
20
0
30
0
70
128
71
-453
72
466
73
465
0
VERTEX
8
LAMP
10
0
20
0
30
0
70
128
71
454
72
455
73
-467
0
VERTEX
8
LAMP
10
0
20
0
30
0
70
128
71
-454
72
467
73
466
0
VERTEX
8
LAMP
10
0
20
0
30
0
70
128
71
455
72
456
73
-468
0
VERTEX
8
LAMP
10
0
20
0
30
0
70
128
71
-455
72
468
73
467
0
VERTEX
8
LAMP
10
0
20
0
30
0
70
128
71
456
72
457
73
-469
0
VERTEX
8
LAMP
10
0
20
0
30
0
70
128
71
-456
72
469
73
468
0
VERTEX
8
LAMP
10
0
20
0
30
0
70
128
71
457
72
458
73
-470
0
VERTEX
8
LAMP
10
0
20
0
30
0
70
128
71
-457
72
470
73
469
0
VERTEX
8
LAMP
10
0
20
0
30
0
70
128
71
458
72
459
73
-471
0
VERTEX
8
LAMP
10
0
20
0
30
0
70
128
71
-458
72
471
73
470
0
VERTEX
8
LAMP
10
0
20
0
30
0
70
128
71
459
72
460
73
-472
0
VERTEX
8
LAMP
10
0
20
0
30
0
70
128
71
-459
72
472
73
471
0
VERTEX
8
LAMP
10
0
20
0
30
0
70
128
71
460
72
461
73
-473
0
VERTEX
8
LAMP
10
0
20
0
30
0
70
128
71
-460
72
473
73
472
0
VERTEX
8
LAMP
10
0
20
0
30
0
70
128
71
461
72
462
73
-474
0
VERTEX
8
LAMP
10
0
20
0
30
0
70
128
71
-461
72
474
73
473
0
VERTEX
8
LAMP
10
0
20
0
30
0
70
128
71
462
72
463
73
-475
0
VERTEX
8
LAMP
10
0
20
0
30
0
70
128
71
-462
72
475
73
474
0
VERTEX
8
LAMP
10
0
20
0
30
0
70
128
71
463
72
464
73
-476
0
VERTEX
8
LAMP
10
0
20
0
30
0
70
128
71
-463
72
476
73
475
0
VERTEX
8
LAMP
10
0
20
0
30
0
70
128
71
464
72
453
73
-465
0
VERTEX
8
LAMP
10
0
20
0
30
0
70
128
71
-464
72
465
73
476
0
VERTEX
8
LAMP
10
0
20
0
30
0
70
128
71
473
72
474
73
-475
0
VERTEX
8
LAMP
10
0
20
0
30
0
70
128
71
472
72
-473
73
-475
0
VERTEX
8
LAMP
10
0
20
0
30
0
70
128
71
471
72
-472
73
-475
0
VERTEX
8
LAMP
10
0
20
0
30
0
70
128
71
470
72
-471
73
-475
0
VERTEX
8
LAMP
10
0
20
0
30
0
70
128
71
469
72
-470
73
-475
0
VERTEX
8
LAMP
10
0
20
0
30
0
70
128
71
468
72
-469
73
-475
0
VERTEX
8
LAMP
10
0
20
0
30
0
70
128
71
467
72
-468
73
-475
0
VERTEX
8
LAMP
10
0
20
0
30
0
70
128
71
466
72
-467
73
-475
0
VERTEX
8
LAMP
10
0
20
0
30
0
70
128
71
465
72
-466
73
-475
0
VERTEX
8
LAMP
10
0
20
0
30
0
70
128
71
476
72
-465
73
475
0
VERTEX
8
LAMP
10
0
20
0
30
0
70
128
71
-456
72
-454
73
-458
0
VERTEX
8
LAMP
10
0
20
0
30
0
70
128
71
453
72
-464
73
454
0
VERTEX
8
LAMP
10
0
20
0
30
0
70
128
71
463
72
-462
73
464
0
VERTEX
8
LAMP
10
0
20
0
30
0
70
128
71
461
72
-460
73
462
0
VERTEX
8
LAMP
10
0
20
0
30
0
70
128
71
459
72
-458
73
460
0
VERTEX
8
LAMP
10
0
20
0
30
0
70
128
71
457
72
-456
73
458
0
VERTEX
8
LAMP
10
0
20
0
30
0
70
128
71
455
72
-454
73
456
0
VERTEX
8
LAMP
10
0
20
0
30
0
70
128
71
-464
72
-462
73
-454
0
VERTEX
8
LAMP
10
0
20
0
30
0
70
128
71
-460
72
-458
73
-462
0
VERTEX
8
LAMP
10
0
20
0
30
0
70
128
71
-462
72
-458
73
-454
0
VERTEX
8
LAMP
10
0
20
0
30
0
70
128
71
477
72
485
73
-481
0
VERTEX
8
LAMP
10
0
20
0
30
0
70
128
71
-477
72
481
73
487
0
VERTEX
8
LAMP
10
0
20
0
30
0
70
128
71
478
72
487
73
-481
0
VERTEX
8
LAMP
10
0
20
0
30
0
70
128
71
-478
72
481
73
486
0
VERTEX
8
LAMP
10
0
20
0
30
0
70
128
71
478
72
486
73
-482
0
VERTEX
8
LAMP
10
0
20
0
30
0
70
128
71
-478
72
482
73
489
0
VERTEX
8
LAMP
10
0
20
0
30
0
70
128
71
479
72
489
73
-482
0
VERTEX
8
LAMP
10
0
20
0
30
0
70
128
71
-479
72
482
73
488
0
VERTEX
8
LAMP
10
0
20
0
30
0
70
128
71
479
72
488
73
-483
0
VERTEX
8
LAMP
10
0
20
0
30
0
70
128
71
-479
72
483
73
491
0
VERTEX
8
LAMP
10
0
20
0
30
0
70
128
71
480
72
491
73
-483
0
VERTEX
8
LAMP
10
0
20
0
30
0
70
128
71
-480
72
483
73
490
0
VERTEX
8
LAMP
10
0
20
0
30
0
70
128
71
480
72
490
73
-484
0
VERTEX
8
LAMP
10
0
20
0
30
0
70
128
71
-480
72
484
73
492
0
VERTEX
8
LAMP
10
0
20
0
30
0
70
128
71
477
72
492
73
-484
0
VERTEX
8
LAMP
10
0
20
0
30
0
70
128
71
-477
72
484
73
485
0
VERTEX
8
LAMP
10
0
20
0
30
0
70
128
71
493
72
494
73
-481
0
VERTEX
8
LAMP
10
0
20
0
30
0
70
128
71
481
72
485
73
-493
0
VERTEX
8
LAMP
10
0
20
0
30
0
70
128
71
494
72
495
73
-486
0
VERTEX
8
LAMP
10
0
20
0
30
0
70
128
71
486
72
481
73
-494
0
VERTEX
8
LAMP
10
0
20
0
30
0
70
128
71
495
72
496
73
-482
0
VERTEX
8
LAMP
10
0
20
0
30
0
70
128
71
482
72
486
73
-495
0
VERTEX
8
LAMP
10
0
20
0
30
0
70
128
71
496
72
497
73
-488
0
VERTEX
8
LAMP
10
0
20
0
30
0
70
128
71
488
72
482
73
-496
0
VERTEX
8
LAMP
10
0
20
0
30
0
70
128
71
497
72
498
73
-483
0
VERTEX
8
LAMP
10
0
20
0
30
0
70
128
71
483
72
488
73
-497
0
VERTEX
8
LAMP
10
0
20
0
30
0
70
128
71
498
72
499
73
-490
0
VERTEX
8
LAMP
10
0
20
0
30
0
70
128
71
490
72
483
73
-498
0
VERTEX
8
LAMP
10
0
20
0
30
0
70
128
71
499
72
500
73
-484
0
VERTEX
8
LAMP
10
0
20
0
30
0
70
128
71
484
72
490
73
-499
0
VERTEX
8
LAMP
10
0
20
0
30
0
70
128
71
500
72
493
73
-485
0
VERTEX
8
LAMP
10
0
20
0
30
0
70
128
71
485
72
484
73
-500
0
VERTEX
8
LAMP
10
0
20
0
30
0
70
128
71
501
72
502
73
-494
0
VERTEX
8
LAMP
10
0
20
0
30
0
70
128
71
494
72
493
73
-501
0
VERTEX
8
LAMP
10
0
20
0
30
0
70
128
71
502
72
503
73
-495
0
VERTEX
8
LAMP
10
0
20
0
30
0
70
128
71
495
72
494
73
-502
0
VERTEX
8
LAMP
10
0
20
0
30
0
70
128
71
503
72
504
73
-496
0
VERTEX
8
LAMP
10
0
20
0
30
0
70
128
71
496
72
495
73
-503
0
VERTEX
8
LAMP
10
0
20
0
30
0
70
128
71
504
72
505
73
-497
0
VERTEX
8
LAMP
10
0
20
0
30
0
70
128
71
497
72
496
73
-504
0
VERTEX
8
LAMP
10
0
20
0
30
0
70
128
71
505
72
506
73
-498
0
VERTEX
8
LAMP
10
0
20
0
30
0
70
128
71
498
72
497
73
-505
0
VERTEX
8
LAMP
10
0
20
0
30
0
70
128
71
506
72
507
73
-499
0
VERTEX
8
LAMP
10
0
20
0
30
0
70
128
71
499
72
498
73
-506
0
VERTEX
8
LAMP
10
0
20
0
30
0
70
128
71
507
72
508
73
-500
0
VERTEX
8
LAMP
10
0
20
0
30
0
70
128
71
500
72
499
73
-507
0
VERTEX
8
LAMP
10
0
20
0
30
0
70
128
71
508
72
501
73
-493
0
VERTEX
8
LAMP
10
0
20
0
30
0
70
128
71
493
72
500
73
-508
0
SEQEND
8
LAMP
0
ENDSEC
0
EOF
